<?xml version="1.0" encoding="UTF-8"?><svg id="Layer_2" xmlns="http://www.w3.org/2000/svg" viewBox="0 0 2000.26 3124.14"><defs><style>.cls-1{fill:#fff;}.cls-2{fill:#9c4c3a;}.cls-3{fill:#ffbb69;}.cls-4{opacity:.6;}.cls-5{fill:#439dff;}.cls-6{fill:#ad5833;}.cls-7{opacity:.4;}.cls-8{opacity:.3;}.cls-9{fill:#0096f0;}.cls-10{fill:#ffdcc5;}.cls-11{fill:#ffd348;}.cls-12{fill:none;}.cls-13{fill:#021168;}.cls-14{fill:#371a45;}.cls-15{opacity:.25;}.cls-16{fill:#ffb992;}</style></defs><g id="Layer_1-2"><g><path class="cls-6" d="M1742.83,2665.55c-84.72,0-153.75-68.35-154.92-152.8-46.83-61.13-115.63-92.18-152.86-85.84-11.02,1.87-17.87,6.76-20.38,14.56-8.62,26.87,55.72,126.81,104.57,192.54,5.69-11.94,11.97-22.36,18.93-30.65,2.14-2.54,5.93-2.88,8.47-.74,2.54,2.13,2.88,5.92,.75,8.47-57.46,68.51-75.08,306.83-29.45,398.43,9.88,19.85,21.77,29.91,35.33,29.91,.47,0,.95-.01,1.43-.04,17.13-.87,30.45-7.46,40.7-20.12,29.62-36.6,22.27-111.46,19.97-129.52-5.63-1.28-11.15-2.87-16.31-5.28-6.67-2.91-12.97-6.51-18.69-10.78-11.49-8.44-21.25-18.86-28.66-30.59,9,10.53,19.97,19.19,31.86,25.5,5.91,3.22,12.17,5.65,18.51,7.38,5.73,1.75,11.66,2.35,17.49,2.72,28.21-14.76,59.13-1.12,66.9,2.81,4.44-.58,9.45-1.86,14.02-3.48,5.37-1.92,10.67-4.26,15.66-7.25,4.97-2.98,9.86-6.29,14.25-10.23,4.54-3.81,8.55-8.22,12.44-12.79-3.07,5.14-6.34,10.25-10.29,14.89-3.8,4.77-8.24,9.03-12.94,13.05-4.71,4.02-9.92,7.48-15.41,10.55-4.17,2.27-8.26,4.26-12.91,5.87-1.25,59.93,18.2,114.91,46.05,128.91,12.35,6.19,25.5,3.82,39.09-7.08,49.2-39.47,1.98-196.21,1.5-197.79-.8-2.63,.28-5.48,2.64-6.9,2.35-1.42,5.38-1.07,7.34,.87,25.72,25.42,60.92,24.55,84.39,12.41,20.45-10.58,30.79-28.27,27.66-47.31-6.64-40.29-97.06-93.24-133.56-111.43-7.68,1.18-15.55,1.79-23.56,1.79Z"/><ellipse class="cls-3" cx="1639.7" cy="2749.42" rx="90.77" ry="103.73"/><path class="cls-10" d="M1695.62,2466.97c0-.85-.7-1.55-1.56-1.55s-1.55,.7-1.55,1.55c0,1.71,3.11,1.71,3.11,0Z"/><path class="cls-6" d="M1632.89,2401.46c28.09-28.3,67-45.86,109.93-45.86,.57,0,1.13,.04,1.7,.04-1.7-13.44-7.89-44.83-29.75-62.46-14.23-11.48-32.98-15.29-55.76-11.33-40.52,7.05-50.84,32.82-52.37,53.19-2.09,27.87,12.29,58.27,26.24,66.42Z"/><path class="cls-6" d="M1742.83,2367.62c-78.82,0-142.95,64.13-142.95,142.95s64.13,142.95,142.95,142.95,142.95-64.13,142.95-142.95-64.13-142.95-142.95-142.95Zm-48.76,85.77c7.49,0,13.58,6.09,13.58,13.58s-6.1,13.58-13.58,13.58-13.58-6.09-13.58-13.58,6.09-13.58,13.58-13.58Zm18.16,149.86c-4.97-1.11-9.78-3.89-13.47-7.74-3.63-3.91-6.27-8.59-7.83-13.45-.96-3.1-1.58-6.11-1.9-9.27-2.99-.32-5.92-1-8.66-2.05-4.71-1.72-8.67-4.66-12.13-7.78-6.7-6.52-11.34-14.43-13.59-22.97,5.88,6.45,12.04,12.24,18.76,16.3,3.29,2.11,6.83,3.49,10.24,4.44,3.46,.92,6.92,.92,10.32,.49,3.18-.4,6.07,1.85,6.47,5.02l.04,.44,.02,.55c.16,3.47,.76,7.76,1.78,11.4,1.02,3.73,2.3,7.34,4.4,10.39,1.93,3.19,4.63,5.83,7.99,8.12,3.41,2.21,7.49,3.86,11.98,5.39-4.49,1.51-9.45,1.77-14.43,.7Zm17.04-47c-2.35,.17-4.7,.31-6.98,.16-4.58-.19-9-1-13.34-2.18l-.32-.09c-2.61-.71-4.31-3.12-4.23-5.71,.12-3.88,.55-7.76,1.46-11.64,1-3.88,2.17-7.76,4.51-11.64,2.33,3.88,3.51,7.76,4.51,11.64,.55,2.32,.88,4.64,1.12,6.97,2.93,.83,5.83,1.78,8.64,3.1,2.09,.91,4.11,2.12,6.12,3.36,1.98,1.35,3.97,2.7,5.81,4.62-2.52,.86-4.9,1.14-7.28,1.42Zm67.16,1.16c-7.49,0-13.58-6.09-13.58-13.58s6.09-13.58,13.58-13.58,13.58,6.09,13.58,13.58-6.09,13.58-13.58,13.58Z"/><path class="cls-6" d="M1886.45,2452.45c7.3,17.96,11.35,37.57,11.35,58.12,0,25.29-6.13,49.16-16.91,70.26,21.33,13.07,50.94,12.59,73.85-1.67,24.23-15.09,34.95-41.24,29.41-71.74-10.71-58.87-75.28-57.34-97.69-54.97Z"/><path class="cls-12" d="M1946.26,2560.07c19.87-3.68,31.01-12.2,37.19-19.72,2.54-10.08,2.84-21.18,.7-32.94-.58-3.2-1.35-6.2-2.24-9.05-24.53-24.63-78.35-25.13-88.46-24.17,2.83,11.67,4.36,23.84,4.36,36.37,0,15.26-2.27,29.99-6.41,43.92,8.45,4.23,26.99,10.75,54.86,5.59Z"/><path class="cls-12" d="M1625.93,2344.19c5.83,20.57,20.55,35.83,25.37,41.44,21.08-15.49,46.19-25.76,73.44-28.95-.58-6.6-4.08-33.96-23.11-51.77-21.76-20.37-65.52-13.09-65.52-13.09,0,0,1.33-1.94,2.8-4.02-5.37,2.41-9.9,5.27-13.69,8.46-1.54,8.81-4.58,29.3,.7,47.93Z"/><path class="cls-12" d="M1551.7,2799.23c29.03,41.9,170.24,70.21,195.84,20.95,0,0,3.2,32.29-9.02,52.95-12.22,20.66-15.71,49.46-9.02,82.05,6.69,32.59,41.02,39.57,56.44,11.35,7.31-13.38,10.87-25.68,12.55-35.29-2.43-54.84-20.27-114.15-20.57-115.11-.8-2.63,.28-5.48,2.64-6.9,.23-.14,.49-.18,.73-.29-3.09-3.54-7.28-10.28-7.28-10.28,0,0,9.89-6.4,33.46,1.75,23.57,8.15,72.97,14.96,87.57-10.18,1.63-2.81,3.13-4.78,4.49-6.11-4.85-7.32-14.47-20.87-29.51-34.69-52.93-46.01-134.9-84.03-134.97-84.07-75.4-3.74-136.73-61.64-145.94-135.5-18.31-16.88-56.94-50.72-91.01-68.89-46.55-24.83-77.58-23.01-77.58-23.01-.47-1.73-.54-3.26-.41-4.69-1.11,.98-2.11,2.03-2.94,3.21,13.39,22.1,64.28,105.91,81.9,132.34,15.81,23.71,28.6,37.04,33.55,41.84,1.8-2.57,3.64-5.03,5.54-7.3,2.14-2.54,5.93-2.88,8.47-.74,2.54,2.13,2.88,5.92,.75,8.47-7.68,9.16-14.62,21.42-20.82,35.89l-3.05,12.58s-.85,97.8,28.19,139.7Z"/><path class="cls-12" d="M1695.62,2466.97c0-.85-.7-1.55-1.56-1.55s-1.55,.7-1.55,1.55c0,1.71,3.11,1.71,3.11,0Z"/><path class="cls-12" d="M1557.85,3009.58c24.15-1.16,36.08-99.21,32.58-105.61-3.49-6.4-63.06-56.82-78.55-92.52-6.79-15.65-11.21-33.01-14-47.92-9.14,71.21-7.85,150.15,6.15,206.42,11.44,13.83,35.9,40.49,53.82,39.63Z"/><g class="cls-15"><path class="cls-13" d="M1590.43,2903.97c3.49,6.4-8.44,104.45-32.58,105.61-17.92,.86-42.38-25.8-53.82-39.63,3.73,14.97,8.34,28.36,13.9,39.54,9.88,19.85,21.77,29.91,35.33,29.91,.47,0,.95-.01,1.43-.04,17.13-.87,30.45-7.46,40.7-20.12,29.62-36.6,22.27-111.46,19.97-129.52-5.63-1.28-11.15-2.87-16.31-5.28-6.67-2.91-12.97-6.51-18.69-10.78-11.49-8.44-21.25-18.86-28.66-30.59,9,10.53,19.97,19.19,31.86,25.5,5.91,3.22,12.17,5.65,18.51,7.38,5.73,1.75,11.66,2.35,17.49,2.72,28.21-14.76,59.13-1.12,66.9,2.81,4.44-.58,9.45-1.86,14.02-3.48,5.37-1.92,10.67-4.26,15.66-7.25,4.97-2.98,9.86-6.29,14.25-10.23,4.54-3.81,8.55-8.22,12.44-12.79-3.07,5.14-6.34,10.25-10.29,14.89-3.8,4.77-8.24,9.03-12.94,13.05-4.71,4.02-9.92,7.48-15.41,10.55-4.17,2.27-8.26,4.26-12.91,5.87-1.25,59.93,18.2,114.91,46.05,128.91,12.35,6.19,25.5,3.82,39.09-7.08,19.03-15.27,23.61-48.09,22.07-82.68-1.68,9.61-5.24,21.91-12.55,35.29-15.42,28.22-49.75,21.24-56.44-11.35-6.69-32.59-3.2-61.39,9.02-82.05,12.22-20.66,9.02-52.95,9.02-52.95-25.6,49.27-166.81,20.95-195.84-20.95-29.03-41.9-28.19-139.7-28.19-139.7l3.05-12.58c-13.25,30.93-22.99,72.22-28.69,116.58,2.79,14.91,7.21,32.27,14,47.92,15.49,35.7,75.06,86.12,78.55,92.52Z"/></g><g class="cls-15"><path class="cls-13" d="M1895.05,2790.21c-14.6,25.14-64.01,18.33-87.57,10.18-23.57-8.15-33.46-1.75-33.46-1.75,0,0,4.19,6.74,7.28,10.28,2.22-.97,4.84-.59,6.61,1.16,25.72,25.42,60.92,24.55,84.39,12.41,16.82-8.7,26.66-22.24,27.93-37.36-.22-.33-.44-.67-.68-1.03-1.35,1.33-2.86,3.3-4.49,6.11Z"/></g><g class="cls-15"><path class="cls-13" d="M1499.08,2568.8c-17.62-26.44-68.51-110.25-81.9-132.34-1.07,1.51-1.92,3.17-2.51,5-8.62,26.87,55.72,126.81,104.57,192.54,4.13-8.67,8.59-16.52,13.38-23.36-4.95-4.8-17.74-18.13-33.55-41.84Z"/></g><g class="cls-15"><path class="cls-13" d="M1632.89,2401.46c5.7-5.74,11.87-11.02,18.4-15.82-4.82-5.62-19.54-20.87-25.37-41.44-5.28-18.63-2.25-39.12-.7-47.93-13.18,11.08-17.61,25.98-18.57,38.77-2.09,27.87,12.29,58.27,26.24,66.42Z"/></g><g class="cls-15"><path class="cls-13" d="M1726.65,2634.85c-99.15-18.91-125.26-120.16-125.26-120.16,0,0-.54,1.45-1.3,3.72,4.08,75.19,66.53,135.12,142.73,135.12,51.93,0,97.47-27.84,122.51-69.37-24.24,25.95-72.06,63.4-138.68,50.7Z"/></g><g class="cls-15"><path class="cls-13" d="M1954.74,2579.17c14.89-9.27,24.66-22.74,28.7-38.81-6.17,7.52-17.31,16.04-37.19,19.72-27.87,5.16-46.4-1.36-54.86-5.59-2.72,9.16-6.23,17.98-10.51,26.35,21.33,13.07,50.94,12.59,73.85-1.67Z"/></g><g class="cls-7"><path class="cls-1" d="M1701.63,2304.92c19.02,17.8,22.53,45.17,23.11,51.77,5.94-.69,11.97-1.09,18.09-1.09,.57,0,1.13,.04,1.7,.04-1.7-13.44-7.89-44.83-29.75-62.46-14.23-11.48-32.98-15.29-55.76-11.33-7.77,1.35-14.41,3.4-20.1,5.96-1.47,2.09-2.8,4.02-2.8,4.02,0,0,43.76-7.27,65.52,13.09Z"/></g><g class="cls-7"><path class="cls-1" d="M1996.91,2511.6c3.65-1.25,.84-13.86-7.45-26.99,2.95,6.29,5.15,13.17,6.51,20.67,.39,2.12,.69,4.23,.94,6.32Z"/></g><g class="cls-7"><path class="cls-1" d="M1742.83,2387.84c59.43-3.41,95.08,18.74,113.7,36.22-26.14-34.27-67.37-56.44-113.7-56.44-61.09,0-113.32,38.53-133.75,92.55,.74,5.25,2.3,8.09,2.3,8.09,0,0,35.09-74.89,131.45-80.42Z"/></g><g class="cls-7"><path class="cls-1" d="M1981.91,2498.37c-15.4-49.62-74.26-48.15-95.45-45.92,2.85,7.01,5.18,14.28,6.99,21.75,10.11-.96,63.93-.46,88.46,24.17Z"/></g><g class="cls-7"><path class="cls-1" d="M1420.52,2437.94s31.03-1.81,77.58,23.01c34.07,18.17,72.7,52.01,91.01,68.89-.7-5.62-1.13-11.32-1.21-17.1-46.83-61.13-115.63-92.18-152.86-85.84-6.42,1.09-11.38,3.23-14.93,6.35-.13,1.43-.06,2.96,.41,4.69Z"/></g><g class="cls-7"><path class="cls-1" d="M1899.54,2784.11c.29-.29,.58-.55,.86-.77,.1-2.68,0-5.39-.44-8.14-6.64-40.29-97.06-93.24-133.56-111.43-7.68,1.18-15.55,1.79-23.56,1.79-2.61,0-5.2-.07-7.77-.2,.07,.03,82.05,38.06,134.97,84.07,15.04,13.82,24.65,27.37,29.51,34.69Z"/></g><g class="cls-15"><path class="cls-13" d="M1900.22,2785.14c.05-.6,.15-1.2,.18-1.81-.28,.23-.56,.49-.86,.77,.24,.37,.46,.7,.68,1.03Z"/></g><g class="cls-7"><path class="cls-1" d="M1900.22,2785.14c.05-.6,.15-1.2,.18-1.81-.28,.23-.56,.49-.86,.77,.24,.37,.46,.7,.68,1.03Z"/></g><path class="cls-14" d="M1742.83,2668.24c-86.94,0-157.67-70.73-157.67-157.67s70.73-157.67,157.67-157.67,157.67,70.73,157.67,157.67-70.73,157.67-157.67,157.67Zm0-297.92c-77.33,0-140.25,62.92-140.25,140.25s62.92,140.26,140.25,140.26,140.26-62.92,140.26-140.26-62.92-140.25-140.26-140.25Z"/><path class="cls-14" d="M1634.18,2417.38c-.91,0-1.84-.15-2.75-.45-22.9-7.64-42.08-47.96-39.45-82.98,2.67-35.66,26.19-59.93,64.52-66.6,27.17-4.73,49.89,.13,67.57,14.42,33.36,26.97,35.7,77.6,35.79,79.75,.19,4.8-3.56,8.85-8.36,9.04-4.69,.19-8.84-3.55-9.04-8.35-.02-.62-2.24-45.05-29.39-66.94-13.59-10.96-31.62-14.57-53.57-10.76-38.81,6.75-48.69,31.32-50.15,50.74-2.33,31.16,15.13,61.01,27.59,65.16,4.56,1.52,7.03,6.46,5.51,11.02-1.22,3.65-4.61,5.95-8.26,5.96Z"/><path class="cls-14" d="M1915.73,2604.92c-17.29,0-34.24-5.05-47.81-15.09-3.87-2.86-4.68-8.31-1.82-12.17,2.86-3.87,8.32-4.67,12.17-1.82,20.64,15.26,51.5,15.7,75.04,1.04,23.24-14.47,33.51-39.61,28.17-68.97-3.11-17.11-11.21-30.29-24.07-39.18-30.42-21.03-77.54-12.69-78.02-12.6-4.76,.85-9.27-2.26-10.14-6.99-.86-4.73,2.27-9.27,6.99-10.14,2.22-.41,54.77-9.68,91.06,15.4,16.8,11.61,27.33,28.57,31.3,50.39,6.59,36.22-6.91,68.7-36.1,86.88-14.22,8.85-30.65,13.25-46.79,13.26Z"/><path class="cls-14" d="M1694.07,2486.15c-10.57,0-19.17-8.6-19.17-19.17s8.6-19.17,19.17-19.17,19.17,8.6,19.17,19.17-8.6,19.17-19.17,19.17Zm0-23.21c-2.23,0-4.04,1.81-4.04,4.04s1.81,4.04,4.04,4.04,4.04-1.81,4.04-4.04-1.81-4.04-4.04-4.04Z"/><path class="cls-14" d="M1796.42,2563c-10.57,0-19.17-8.6-19.17-19.17s8.6-19.17,19.17-19.17,19.17,8.6,19.17,19.17-8.6,19.17-19.17,19.17Zm0-23.21c-2.23,0-4.04,1.81-4.04,4.04s1.81,4.04,4.04,4.04,4.04-1.81,4.04-4.04-1.81-4.04-4.04-4.04Z"/><path class="cls-14" d="M1710.36,2525.16c5.66,6.57,8.27,14.94,8.65,23.27l-6.59-8.4c9.42,1.93,18.34,6.65,24.13,14.8-2.68,1.48-5.14,2.11-7.62,2.78-8.07,1.64-27.42,2.39-27.21-9.18,.37-8.34,2.99-16.71,8.64-23.27h0Z"/><path class="cls-14" d="M1654.65,2540c10.18,11.11,23.28,23.62,39.34,21.44,3.04-.41,5.83,1.71,6.24,4.75,.32,7.64,2.04,16.44,6.32,22.97,4.35,7.16,11.89,10.79,20.1,13.4-22.14,7.2-39.1-14.87-37.66-35.68l6.31,5.81c-19.7,2.02-35.92-14.94-40.65-32.68h0Z"/><path class="cls-14" d="M1553.27,3054.12c-13.98,0-33.04-6.97-48.52-38.06-44.77-89.89-34.49-335.95,31.35-414.45,3.08-3.68,8.58-4.17,12.27-1.07,3.68,3.09,4.17,8.58,1.07,12.27-57,67.97-74.41,304.53-29.11,395.49,9.71,19.51,21.36,29.15,34.21,28.38,16.33-.83,29-7.09,38.74-19.12,32.9-40.63,19.01-130.51,18.86-131.41-.57-3.58,1.14-7.15,4.3-8.95,33.58-19.1,71.59,1.99,73.18,2.91,2.83,1.6,4.53,4.65,4.41,7.9-2.25,60.56,16.89,116.7,44.51,130.58,11.33,5.7,23.5,3.41,36.19-6.77,39.67-31.82,13.9-151.48,.62-194.91-1.17-3.81,.41-7.93,3.82-10,3.42-2.07,7.79-1.53,10.62,1.25,24.78,24.47,58.66,23.62,81.25,11.94,19.37-10.02,29.17-26.65,26.24-44.48-6.56-39.81-98.8-93.12-133.79-110.3-4.32-2.12-6.1-7.33-3.98-11.65,2.12-4.32,7.33-6.1,11.66-3.98,13.7,6.73,134.1,67.33,143.29,123.1,4.17,25.26-9.4,49.32-35.41,62.78-22.22,11.5-53.23,14.57-80.54,.34,11.81,48.12,31.48,153.9-12.88,189.48-23.03,18.47-42.57,14.95-54.91,8.75-33.45-16.82-55.41-74.35-54.24-141.06-8.68-3.74-28.28-10.36-46.25-3.23,2.79,22.7,9.16,98.4-23.4,138.64-12.85,15.88-30.14,24.49-51.4,25.58-.71,.03-1.43,.05-2.17,.05Z"/><path class="cls-14" d="M1520.48,2654.39c-2.63,0-5.24-1.19-6.95-3.46-21.28-28.14-126.75-170.73-112.88-213.97,4.19-13.06,15.53-21.79,31.93-24.57,42.81-7.24,117.4,25.54,168.23,92.93,2.9,3.84,2.13,9.3-1.7,12.19-3.84,2.9-9.3,2.13-12.19-1.7-46.24-61.3-114.64-92.47-151.43-86.25-9.95,1.68-16.09,5.97-18.26,12.72-8.6,26.81,63.02,135.77,110.19,198.15,2.9,3.83,2.14,9.29-1.69,12.19-1.57,1.19-3.41,1.76-5.24,1.76Z"/><path class="cls-14" d="M1551.7,2843.07c13.93,15.02,31.45,26.3,51.05,30.98,6.23,1.66,12.63,1.94,18.81,2.06,5.01-.15,9.19,3.92,9.08,8.95-.04,5.49-5.38,9.65-10.71,8.39-7.51-1.7-14.86-3.72-21.56-7.09-19.55-9.18-35.94-25.15-46.67-43.28h0Z"/><path class="cls-14" d="M1684.05,2879.07c22.64-1.57,43.83-14.46,58.78-31.35-5.72,10.83-13.2,20.79-22.45,29.04-9.98,8.77-21.08,15.82-34.13,19.63-12.94,2.87-15.46-16.87-2.19-17.32h0Z"/><path class="cls-1" d="M346.36,2144.75c-30.23,5.18-50.63,9.27-59.3,11.07-1.25,59.32-1.16,139.42,2.71,240.48,13.31,1.98,49.27,9.48,90.14,36.35-63.08-123.19-41.26-252.79-33.55-287.91Z"/><path class="cls-1" d="M1158.39,2117.77c-341.99-38.61-658.39,1.48-799.21,24.82-7.98,33.13-57.87,276.15,152.74,420.08,109.8,75.04,260.95,91.77,404.3,44.76,113.3-37.15,200.61-108.46,227.87-186.09,54.84-156.23,21.18-281.26,14.29-303.57Z"/><path class="cls-1" d="M293.02,2032.07c-1.05,11.38-4.09,48.45-5.68,111.42,10.93-2.24,33.36-6.64,65.4-12.01,.48-.14,.94-.23,1.45-.24,140.47-23.45,461.74-64.7,808.8-25.04,.24,0,.47,.05,.71,.08,41.57,4.76,83.49,10.69,125.52,17.94-8.92-43.54-19.92-88.2-33.43-131.35-54.46-5.6-659.57-64.6-962.76,39.2Z"/><path class="cls-1" d="M1327.02,2428.72c-1.71-6.29-2.71-13.19-2.87-20.77-.94-42.42-8.83-151.45-32.38-271.09-40.3-7.05-80.52-12.86-120.42-17.59,9.42,33.48,36.77,156.02-15.9,306.05-1.95,5.55-4.21,11.06-6.72,16.53,95.75-37.25,152.45-24.53,178.3-13.14Z"/><path class="cls-16" d="M1317.26,2437.98c-26.83-9.99-83.53-19.11-176.99,20.27-38.61,67.84-119.55,127.57-220.29,160.6-54.92,18.01-111,26.87-165.58,26.87-91.39,0-178.59-24.83-249.26-73.13-49.91-34.11-85.6-73.59-110.94-114.59-44.47-36.09-87.65-46.58-103.95-49.4,.46,11.28,.97,22.81,1.52,34.6,0,.11,.02,.22,.01,.34,6.16,130.19,18.44,291.25,41.22,483.41,11.98-1.8,23.73-2.77,35.64-3.22,14.05-.54,28.1-.18,42.06,.97,13.96,1.07,27.83,3.08,41.47,6.05,13.7,2.7,26.99,7.02,40.07,11.62-13.4-3.65-26.86-6.98-40.59-8.66-13.67-1.96-27.45-2.95-41.22-3.01-13.76-.13-27.51,.5-41.14,2.02-13.32,1.46-26.82,3.65-39.46,6.8-8.84,4.57-115.34,60.98-94.98,115.97,1.22,3.28,6.21,9.73,26.01,16.14,4.76,1.54,10.05,2.97,15.79,4.29,1.16-10.11,3.65-19.1,7.15-28.06,3.63-9.26,8.51-17.99,14.44-25.84,5.9-7.86,12.75-15,20.6-20.72,7.61-6.06,16.32-10.39,25.01-14.32-8.26,4.83-16.32,9.97-23.07,16.62-6.99,6.32-12.79,13.81-17.54,21.77-4.79,7.95-8.45,16.53-10.9,25.39-2.47,8.73-3.89,18.24-3.85,26.66v.41c0,.19-.09,.35-.1,.53,18.67,3.52,41.05,6.15,65.81,8.02,1.18-11.45,3.86-21.8,7.55-32.14,3.79-10.36,8.87-20.24,15.19-29.2,6.19-9.05,14.01-16.93,22.74-23.33,8.54-6.76,18.61-11,28.55-14.74-9.58,4.68-19.01,9.75-26.65,17.08-7.84,6.97-14.54,15.14-19.57,24.24-5.15,9.01-9.03,18.68-11.65,28.67-2.57,9.88-4.15,20.48-4.19,30.15v.11c149.12,9.63,371.47-5.55,390.72-16.19,2.66-6.75,1.34-46.19,.06-84.34-4.66-139.45-4.87-264.96,43.17-269.1,66.89-5.96,94.5,184.1,99.96,227.92,13.08-2.93,25.96-4.72,39.06-5.92,15.37-1.34,30.78-1.87,46.13-1.24,15.34,.6,30.65,1.89,45.74,4.46,15.14,2.24,29.99,5.98,44.66,10.04-14.92-3.09-29.9-5.83-45.04-7.06-15.09-1.56-30.27-1.83-45.37-1.43-15.11,.37-30.16,1.88-45.02,4.18-14.64,2.29-29.48,5.47-43.12,9.92-7.02,3.47-107.51,54.35-85.13,107.26,1.6,3.78,7.61,10.91,29.65,17.73,.01-.04,0-.08,.02-.11,.08-.19,.17-.38,.27-.56,4.96-9.03,10.36-17.22,16.19-25.34,5.86-8.04,12.07-15.82,18.88-23.06,6.86-7.19,14.14-13.97,22.13-19.83,8.07-5.75,16.77-10.58,26.02-13.79-8.89,4.15-16.88,9.76-24.13,16.13-7.17,6.49-13.54,13.78-19.43,21.38-5.86,7.65-11.07,15.77-15.9,24.08-4.53,7.89-8.78,16.16-12.29,24.3,18.91,4.6,42.41,7.95,68.72,10.22,.02-.12-.02-.23,0-.35,.04-.18,.08-.37,.13-.54,3.34-11.28,7.84-21.25,13.2-31.12,5.38-9.76,11.76-18.94,19.01-27.32,7.15-8.46,15.53-15.84,24.56-22.07,8.88-6.53,19.07-10.85,29.16-14.7-9.73,4.79-19.29,9.94-27.34,17.1-8.2,6.87-15.58,14.68-21.66,23.41-6.18,8.64-11.41,17.9-15.64,27.58-4.06,9.37-7.42,19.42-9.38,28.97,18.76,1.34,38.72,2.19,59.3,2.58,.04-.71,.17-1.42,.47-2.1,.1-.21,.22-.45,.34-.65,4.56-7.58,9.44-14.33,14.7-21.04,5.26-6.64,10.89-12.97,16.87-18.93,6.02-5.93,12.5-11.37,19.31-16.27,6.9-4.81,14.3-8.83,21.99-11.95-7.28,4.04-14,8.84-20.12,14.3-6.04,5.57-11.63,11.55-16.71,17.94-5.05,6.43-9.7,13.13-13.94,20.07-3.71,6.1-7.17,12.5-10.13,18.81,128.27,1.32,274.97-13.83,299.45-31.57,31.98-23.19,24.02-398.98,11.49-630.4-.01-.22,.08-.42,.09-.64Z"/><path class="cls-16" d="M857.21,1586.76c-45.18,2.38-88.34,3.57-129.4,3.57-136.22,0-249.62-13.1-339.79-39.11-19.95,11.78-175.22,109.24-241.49,323.04-73.12,235.88-130.59,442.42-93.05,581.25,7.99,29.52,24.09,49.6,47.86,59.66,62.75,26.57,161.56-21.7,180.46-31.5-.72-13.27-1.38-26.24-1.98-38.93-2.63-7.87-6.89-16.13-11.85-23.37-5.12-7.43-11.35-14.13-18.65-19.51-3.59-2.82-7.63-4.89-11.69-7.02-4.26-1.56-8.49-3.57-13.08-4.26-9.02-2.37-18.51-1.86-27.92-1,9.21-1.84,18.81-3.41,28.42-1.97,4.87,.23,9.5,1.82,14.23,3.03,4.54,1.78,9.14,3.57,13.32,6.18,8.49,4.97,16.06,11.53,22.49,19.03,1.25,1.49,2.44,3.01,3.61,4.53-.26-6.07-.51-12.07-.74-18-.05-.41-.18-.8-.15-1.23,0-.11,.07-.2,.09-.31-4.12-105.37-4.14-188.3-2.79-249.01-.11-.74-.11-1.47,.05-2.16,1.86-80.82,6.15-121.6,6.27-122.68,0-.02,.01-.03,.01-.05,2.74-23,6.52-45.56,10.86-68.13,4.43-22.58,9.42-45.06,15.62-67.22,6.26-22.13,12.96-44.17,21.81-65.42,8.78-21.22,18.9-42.01,32.16-60.75-12.42,19.31-21.55,40.39-29.35,61.83-7.86,21.45-13.55,43.62-18.79,65.82-5.18,22.23-9.15,44.73-12.56,67.28-2.88,19.5-5.3,39.15-7.01,58.7,300.64-100.12,882.81-46.16,958.6-38.55-3.72-18.74-7.84-37.52-12.31-56.17-5.13-21.34-10.72-42.57-16.72-63.7-5.94-21.15-12.55-42.1-19.56-62.93-6.99-20.84-14.85-41.38-23.16-61.76,9.22,19.97,18.03,40.18,25.98,60.73,7.96,20.54,15.56,41.25,22.48,62.18,6.98,20.91,13.56,41.97,19.69,63.17,6.06,21.05,11.76,42.11,16.88,63.55,53.55,168.82,68.75,361.95,70.09,422.13,.41,18.39,5.95,32.01,16.48,40.48,14.54,11.71,35.21,11.09,43.99,10.18,1-7.5,2.78-14.54,5.31-21.56,3.17-8.54,7.67-16.77,14.04-23.46,6.22-6.87,14.95-11.2,23.67-12.81,4.37-1.14,8.84-.87,13.22-.84,4.37,.19,8.65,1.34,12.92,1.95-4.35-.12-8.65-.77-12.92-.45-4.27,.47-8.52,.7-12.48,2.25-7.96,2.48-15.11,7.17-19.87,13.83-4.89,6.52-8.02,14.22-9.96,22.19-1.9,7.9-2.82,16.48-2.52,24.23v.24c.01,.05-.01,.1-.01,.15,0,0,0,.01,0,.02-1.36,19.69,17.05,38.07,46.9,46.83,44.02,12.94,104.65,2.75,133.74-50.14,54.53-99.15-23.14-339.58-115.19-584.63-100.96-268.76-261.01-365.85-282.74-378.02-78.91,44.43-187.11,80.93-333.54,88.64Z"/><path class="cls-12" d="M251.85,3007.55s7.24,12.22,39.89,24.28c2.01-3.38,4.15-6.68,6.51-9.8,5.9-7.86,12.75-15,20.6-20.72,7.61-6.06,16.32-10.39,25.01-14.32-8.26,4.83-16.32,9.97-23.07,16.62-6.99,6.32-12.79,13.81-17.54,21.77-1.72,2.86-3.25,5.83-4.68,8.84,11.96,3.97,26.81,7.84,45.29,11.16,5.87,1.05,12.78,1.95,20.38,2.73,3.44-8.11,7.66-15.88,12.71-23.04,6.19-9.05,14.01-16.93,22.74-23.33,8.54-6.76,18.61-11,28.55-14.74-9.58,4.68-19.01,9.75-26.65,17.08-7.84,6.97-14.54,15.14-19.57,24.24-3.75,6.56-6.8,13.48-9.21,20.6,97.04,8.2,296.57-1.86,319.54-19.44,25.6-19.59,19.4-222.09,9.12-265.15-10.28-43.06-138.88-67.5-220.34-153.62-69.03-72.98-88.44-138.83-92.76-157.23-42.36-32.39-82.51-42.15-98.1-44.85,.46,11.28,.97,22.81,1.52,34.6,0,.11,.02,.22,.01,.34,6.16,130.19,18.44,291.25,41.22,483.41,11.98-1.8,23.73-2.77,35.64-3.22,14.05-.54,28.1-.18,42.06,.97,13.96,1.07,27.83,3.08,41.47,6.05,13.7,2.7,26.99,7.02,40.07,11.62-13.4-3.65-26.86-6.98-40.59-8.66-13.67-1.96-27.45-2.95-41.22-3.01-13.76-.13-27.51,.5-41.14,2.02-13.32,1.46-26.82,3.65-39.46,6.8-6.22,3.21-60.76,32.11-85.46,68.11,4.15-.84,7.48-.1,7.48-.1Z"/><path class="cls-12" d="M496.09,1458.03c7.45,3.83,15.4,7.4,23.97,10.58-3.17-2.53-6.16-5.23-9.02-8.04,.01,.03,.09,.15,.09,.15,0,0-5.39,.36-15.03-2.69Z"/><path class="cls-12" d="M1260.33,2327.9c22.42-17.78,11.08-165.13,8.54-194.87-32.64-5.34-65.19-9.93-97.53-13.76,7.67,27.25,27.21,113.52,5.81,225.58,11.08,.29,61.06,.59,83.18-16.95Z"/><path class="cls-12" d="M1232.76,1990.63c-121.12-11.28-621.71-51-907.8,31.43,.97,33.03,3.65,73.3,6.88,113.02,6.44-1.14,13.38-2.34,20.91-3.6,.48-.14,.94-.23,1.45-.24,140.47-23.45,461.74-64.7,808.8-25.04,.24,0,.47,.05,.71,.08,27.03,3.1,54.21,6.74,81.47,10.87-.71-12.34-2.46-41.83-4.69-70.3-.7-9-3.66-29.83-7.72-56.22Z"/><path class="cls-12" d="M346.36,2144.75c-4.79,.82-9.25,1.6-13.54,2.36,1.64,19.53,3.39,38.69,5.09,56.58,2.12-27.03,5.99-47.78,8.44-58.94Z"/><path class="cls-12" d="M788.28,2549.02c323.6-37.24,386.63-308.83,386.63-308.83-.3-64.82-12.65-109.87-16.52-122.42-341.99-38.61-658.39,1.48-799.21,24.82-4.1,17.03-19.27,89.54-4.44,175.54,28.15,55.65,152.86,263.19,433.53,230.89Z"/><path class="cls-12" d="M860.51,2685.25c-18.04,9.24,5.5,85.72,23.99,170.84,.07,.34,.14,.65,.21,.99,8.53,37.79,13.4,72.63,15.37,88.43,13.08-2.93,25.96-4.72,39.06-5.92,15.37-1.34,30.78-1.87,46.13-1.24,15.34,.6,30.65,1.89,45.74,4.46,15.14,2.24,29.99,5.98,44.66,10.04-14.92-3.09-29.9-5.83-45.04-7.06-15.09-1.56-30.27-1.83-45.37-1.43-15.11,.37-30.16,1.88-45.02,4.18-14.64,2.29-29.48,5.47-43.12,9.92-5.07,2.51-59,29.81-80.03,64.74,.74,11.5,14.62,20.72,47.05,26.4,4.09-5.24,8.31-10.38,12.87-15.22,6.86-7.19,14.14-13.97,22.13-19.83,8.07-5.75,16.77-10.58,26.02-13.79-8.89,4.15-16.88,9.76-24.13,16.13-7.17,6.49-13.54,13.78-19.43,21.38-3.14,4.1-6.07,8.35-8.89,12.68,17.78,2.54,40.3,4.18,68.24,4.75,4.09-6.38,8.58-12.48,13.51-18.18,7.15-8.46,15.53-15.84,24.56-22.07,8.88-6.53,19.07-10.85,29.16-14.7-9.73,4.79-19.29,9.94-27.34,17.1-8.2,6.87-15.58,14.68-21.66,23.41-3.35,4.68-6.4,9.57-9.18,14.59,9.9,.12,20.35,.13,31.54,0,16-.19,31.61-.32,46.8-.43,5.32-5.02,10.91-9.75,16.82-14,6.9-4.81,14.3-8.83,21.99-11.95-7.28,4.04-14,8.84-20.12,14.3-3.97,3.66-7.67,7.57-11.23,11.58,117.62-.93,207.52-2.31,234.36-36.75,29.42-37.74,55.46-227.31,57.8-244.72-.84-98.1-4.37-205.39-8.8-296.53-13.11-4.85-58.44-18.92-114.17-5.72-66.34,15.71-95.79,29.67-95.79,29.67,0,0-.32,.3-.78,.72-15.05,16.92-32.7,32.97-52.64,47.79-13,23.56-57.47,82.19-195.27,135.44Z"/><path class="cls-12" d="M216.94,1795.67c-74.48,143.53-154,432.86-155.95,431.37-2.83-2.16-4.07-8.12-4.21-16.38-.79,4.31-1.56,8.6-2.3,12.86l5.93,11.86s-5.24,171.66,34.91,215.3c36.56,39.74,157.49-9.75,178.85-18.93-1.88-3.58-3.95-7.09-6.2-10.38-5.12-7.43-11.35-14.13-18.65-19.51-3.59-2.82-7.63-4.89-11.69-7.02-4.26-1.56-8.49-3.57-13.08-4.26-9.02-2.37-18.51-1.86-27.92-1,9.21-1.84,18.81-3.41,28.42-1.97,4.87,.23,9.5,1.82,14.23,3.03,4.54,1.78,9.14,3.57,13.32,6.18,8.49,4.97,16.06,11.53,22.49,19.03,1.25,1.49,2.44,3.01,3.61,4.53-.26-6.07-.51-12.07-.74-18-.05-.41-.18-.8-.15-1.23,0-.11,.07-.2,.09-.31-4.12-105.37-4.14-188.3-2.79-249.01-.11-.74-.11-1.47,.05-2.16,1.86-80.82,6.15-121.6,6.27-122.68,0-.02,.01-.03,.01-.05,2.74-23,6.52-45.56,10.86-68.13,4.43-22.58,9.42-45.06,15.62-67.22,6.26-22.13,12.96-44.17,21.81-65.42,5.68-13.73,12.03-27.21,19.32-40.14,.18-.47,.29-.76,.29-.76,0,.03-.02,.18-.03,.29,3.9-6.89,8-13.67,12.57-20.15-4.91,7.64-9.2,15.61-13.2,23.72-4.06,21.41-25.55,128.26-24.04,220.55h0c286.45-81.2,779.97-42.93,906.19-31.3-10.86-69.25-27.56-167.02-32.94-198.34-5.33-14.8-10.91-29.52-16.86-44.11,5.24,11.35,10.28,22.79,15.17,34.31-.03-.17-.05-.28-.05-.28,0,0,48.37,84.29,90.27,174.48,41.89,90.19,87.86,403.25,91.36,448.05,3.49,44.81,24.23,39.5,24.23,39.5,0,0,1.78-2.4,4.78-5.8,2.53-4.63,5.51-9.02,9.17-12.86,6.22-6.87,14.95-11.2,23.67-12.81,4.37-1.14,8.84-.87,13.22-.84,4.37,.19,8.65,1.34,12.92,1.95-4.35-.12-8.65-.77-12.92-.45-2.95,.33-5.9,.56-8.74,1.17-.12,.32-18.51,51.86,12.81,65.79,31.42,13.97,109.98-4.07,120.45-83.21,10.29-77.79,7.53-163.91,7.43-166.83-2.71-11.38-5.6-22.93-8.72-34.72,.03,.14,.05,.21,.05,.21,0,0-58.11-118.71-151.22-331.68-93.1-212.97-250.67-344.87-250.67-344.87,0,0-55.4,114.44-427.81,141.21-212.79,8.65-324.34-58.41-362.95-94.29-5.8,3.62-15.15,9.76-26.99,18.61-25.99,34.6-84.07,116.12-139.58,223.09Z"/><path class="cls-12" d="M332.55,1827.24c-2.01,5.5-3.88,11.05-5.64,16.63,6.32-16.58,13.43-35.12,17.92-46.83-4.53,9.89-8.57,20-12.29,30.2Z"/><path class="cls-12" d="M1174.26,1507.04h0Z"/><g class="cls-8"><path class="cls-14" d="M746.46,1648.26c372.41-26.77,427.81-141.21,427.81-141.21h-.02c-77.3,40.32-180.55,72.53-317.04,79.71-45.18,2.38-88.34,3.57-129.4,3.57-136.22,0-249.62-13.1-339.79-39.11-1.09,.64-2.65,1.59-4.51,2.75,38.61,35.88,150.16,102.94,362.95,94.29Z"/></g><g class="cls-8"><path class="cls-14" d="M95.32,2450.68c-40.15-43.64-34.91-215.3-34.91-215.3l-5.93-11.86c-15.38,89.25-18.35,167.86-1,231.99,7.99,29.52,24.09,49.6,47.86,59.66,62.75,26.57,161.56-21.7,180.46-31.5-.72-13.27-1.38-26.24-1.98-38.93-1.44-4.3-3.39-8.7-5.64-13-21.36,9.18-142.29,58.67-178.85,18.93Z"/></g><g class="cls-8"><path class="cls-14" d="M1377.81,2392.49c-3.49-44.81-49.46-357.86-91.36-448.05-41.9-90.19-90.27-174.48-90.27-174.48,0,0,.02,.11,.05,.28,3.72,8.76,7.38,17.54,10.81,26.41,7.96,20.54,15.56,41.25,22.48,62.18,6.98,20.91,13.56,41.97,19.69,63.17,6.06,21.05,11.76,42.11,16.88,63.55,53.55,168.82,68.75,361.95,70.09,422.13,.41,18.39,5.95,32.01,16.48,40.48,14.54,11.71,35.21,11.09,43.99,10.18,1-7.5,2.78-14.54,5.31-21.56,1.35-3.63,3-7.17,4.86-10.6-3,3.4-4.78,5.8-4.78,5.8,0,0-20.74,5.31-24.23-39.5Z"/></g><g class="cls-8"><path class="cls-14" d="M1255.78,1992.87c-4.33-.45-12.17-1.23-23.03-2.24,4.07,26.39,7.02,47.22,7.72,56.22,2.22,28.47,3.98,57.95,4.69,70.3,14.67,2.22,29.35,4.54,44.05,7.08-8.92-43.54-19.92-88.2-33.43-131.35Z"/></g><g class="cls-8"><path class="cls-14" d="M293.02,2032.07c-1.05,11.38-4.09,48.45-5.68,111.42,8.37-1.71,23.51-4.7,44.49-8.41-3.23-39.72-5.91-79.99-6.88-113.02-10.96,3.16-21.63,6.48-31.93,10Z"/></g><g class="cls-8"><path class="cls-14" d="M1204.98,2471.63c55.73-13.2,101.06,.87,114.17,5.72-.65-13.27-1.31-26.22-1.99-38.73-.01-.22,.08-.42,.09-.64-26.83-9.99-83.53-19.11-176.99,20.27-8.58,15.07-19.35,29.7-31.85,43.76,.46-.42,.78-.72,.78-.72,0,0,29.45-13.96,95.79-29.67Z"/></g><g class="cls-8"><path class="cls-14" d="M348.7,1789.13c-1.3,2.63-2.64,5.24-3.86,7.91-4.49,11.71-11.6,30.25-17.92,46.83-5.1,16.19-9.26,32.68-13.15,49.19-5.18,22.23-9.15,44.73-12.56,67.28-2.88,19.5-5.3,39.15-7.01,58.7,9.86-3.28,20.03-6.39,30.46-9.35h0c-1.51-92.29,19.98-199.14,24.04-220.56Z"/></g><g class="cls-8"><path class="cls-14" d="M1577.39,2384.93c-10.47,79.14-89.03,97.18-120.45,83.21-31.32-13.92-12.93-65.46-12.81-65.79-1.26,.27-2.52,.6-3.73,1.08-7.96,2.48-15.11,7.17-19.87,13.83-4.89,6.52-8.02,14.22-9.96,22.19-1.9,7.9-2.82,16.48-2.52,24.23v.24c.01,.05-.01,.1-.01,.15,0,0,0,.01,0,.02-1.36,19.69,17.05,38.07,46.9,46.83,44.02,12.94,104.65,2.75,133.74-50.14,27.71-50.38,21.24-137.28-3.85-242.68,.1,2.92,2.86,89.04-7.43,166.83Z"/></g><g class="cls-8"><path class="cls-14" d="M1291.77,2136.86c-7.64-1.34-15.26-2.58-22.89-3.83,2.54,29.74,13.88,177.1-8.54,194.87-22.12,17.54-72.1,17.24-83.18,16.95-4.89,25.61-11.91,52.56-21.71,80.47-1.95,5.55-4.21,11.06-6.72,16.53,95.75-37.25,152.45-24.53,178.3-13.14-1.71-6.29-2.71-13.19-2.87-20.77-.94-42.42-8.83-151.45-32.38-271.09Z"/></g><g class="cls-8"><path class="cls-14" d="M337.92,2203.7c-1.71-17.89-3.45-37.05-5.09-56.58-22.77,4.04-38.47,7.19-45.77,8.71-1.25,59.32-1.16,139.42,2.71,240.48,13.31,1.98,49.27,9.48,90.14,36.35-43.02-84.01-46.55-170.99-42-228.96Z"/></g><g class="cls-15"><path class="cls-13" d="M1252.79,1980.48c-3.72-18.74-7.84-37.52-12.31-56.17-5.13-21.34-10.72-42.57-16.72-63.7-5.94-21.15-12.55-42.1-19.56-62.93-1.99-5.92-4.18-11.77-6.3-17.65,5.38,31.32,22.08,129.09,32.94,198.34,9.42,.87,16.86,1.59,21.94,2.1Z"/></g><g class="cls-15"><path class="cls-13" d="M349.06,1786.03c.09-.16,.17-.32,.26-.47,.01-.11,.04-.26,.03-.29,0,0-.11,.3-.29,.76Z"/></g><g class="cls-8"><path class="cls-14" d="M1174.91,2240.19s-63.03,271.59-386.63,308.83c-280.67,32.3-405.38-175.24-433.53-230.89,14.02,81.28,54.85,174.61,157.18,244.54,109.8,75.04,260.95,91.77,404.3,44.76,113.3-37.15,200.61-108.46,227.87-186.09,23.99-68.35,31.04-130.73,30.81-181.15Z"/></g><g class="cls-8"><path class="cls-14" d="M1035.79,3055.35c-1.86,2.09-3.74,4.17-5.48,6.36-5.05,6.43-9.7,13.13-13.94,20.07-3.71,6.1-7.17,12.5-10.13,18.81,128.27,1.32,274.97-13.83,299.45-31.57,18.38-13.33,23.57-143.18,22.27-295.13-2.34,17.41-28.38,206.98-57.8,244.72-26.84,34.44-116.74,35.82-234.36,36.75Z"/></g><g class="cls-8"><path class="cls-14" d="M950,3055.85c-2.35,4.24-4.52,8.56-6.45,12.99-4.06,9.37-7.42,19.42-9.38,28.97,18.76,1.34,38.72,2.19,59.3,2.58,.04-.71,.17-1.42,.47-2.1,.1-.21,.22-.45,.34-.65,4.56-7.58,9.44-14.33,14.7-21.04,5.26-6.64,10.89-12.97,16.87-18.93,.8-.79,1.68-1.5,2.5-2.27-15.19,.12-30.8,.24-46.8,.43-11.19,.14-21.65,.13-31.54,0Z"/></g><g class="cls-8"><path class="cls-14" d="M701.46,2764.32c10.28,43.06,16.49,245.56-9.12,265.15-22.97,17.58-222.5,27.65-319.54,19.44-.9,2.66-1.72,5.35-2.44,8.06-2.57,9.88-4.15,20.48-4.19,30.15v.11c149.12,9.63,371.47-5.55,390.72-16.19,2.66-6.75,1.34-46.19,.06-84.34-4.66-139.45-4.87-264.96,43.17-269.1,42.77-3.81,69.45,72.49,84.58,139.49-.07-.34-.14-.65-.21-.99-18.49-85.12-42.03-161.6-23.99-170.84,137.8-53.26,182.27-111.88,195.27-135.44-38.12,28.32-84.35,52.18-135.8,69.05-54.92,18.01-111,26.87-165.58,26.87-91.39,0-178.59-24.83-249.26-73.13-49.91-34.11-85.6-73.59-110.94-114.59-1.96-1.59-3.9-3.06-5.85-4.55,4.32,18.4,23.73,84.26,92.76,157.23,81.46,86.12,210.06,110.56,220.34,153.62Z"/></g><g class="cls-8"><path class="cls-14" d="M817.1,3023.2c-8.05,13.38-11.3,27.87-5.1,42.52,1.6,3.78,7.61,10.91,29.65,17.73,.01-.04,0-.08,.02-.11,.08-.19,.17-.38,.27-.56,4.96-9.03,10.36-17.22,16.19-25.34,1.94-2.66,3.99-5.24,6.01-7.83-32.42-5.69-46.3-14.9-47.05-26.4Z"/></g><g class="cls-8"><path class="cls-14" d="M251.85,3007.55s-3.33-.75-7.48,.1c-10.4,15.16-15.55,31.56-9.51,47.85,1.22,3.28,6.21,9.73,26.01,16.14,4.76,1.54,10.05,2.97,15.79,4.29,1.16-10.11,3.65-19.1,7.15-28.06,2.19-5.57,4.88-10.92,7.93-16.04-32.65-12.07-39.89-24.28-39.89-24.28Z"/></g><g class="cls-8"><path class="cls-14" d="M865.7,3062.34c-4.53,7.89-8.78,16.16-12.29,24.3,18.91,4.6,42.41,7.95,68.72,10.22,.02-.12-.02-.23,0-.35,.04-.18,.08-.37,.13-.54,3.34-11.28,7.84-21.25,13.2-31.12,1.72-3.12,3.58-6.15,5.49-9.14-27.94-.58-50.46-2.21-68.24-4.75-2.43,3.74-4.78,7.54-7.02,11.39Z"/></g><g class="cls-8"><path class="cls-14" d="M298.57,3034.21c-2.54,5.35-4.66,10.88-6.22,16.56-2.47,8.73-3.89,18.24-3.85,26.66v.41c0,.19-.09,.35-.1,.53,18.67,3.52,41.05,6.15,65.81,8.02,1.18-11.45,3.86-21.8,7.55-32.14,.76-2.08,1.61-4.12,2.47-6.16-7.6-.78-14.51-1.68-20.38-2.73-18.48-3.31-33.33-7.18-45.29-11.16Z"/></g><g class="cls-7"><path class="cls-1" d="M216.94,1795.67c55.51-106.97,113.59-188.49,139.58-223.09-53.85,40.21-158.63,135.99-209.99,301.68-37.73,121.72-71.26,235.59-89.75,336.41,.15,8.26,1.38,14.22,4.21,16.38,1.95,1.49,81.46-287.84,155.95-431.37Z"/></g><g class="cls-7"><path class="cls-1" d="M1424.94,1851.92c93.1,212.97,151.22,331.68,151.22,331.68,0,0-.02-.08-.05-.21-24.9-93.92-62.38-200.14-102.61-307.24-100.96-268.76-261.01-365.85-282.74-378.02-5.35,3.01-10.86,5.98-16.49,8.91h.01s157.57,131.91,250.67,344.88Z"/></g><g><path class="cls-14" d="M144.83,2546.41c-18.32,0-36.28-2.76-52.6-9.66-30.75-13.01-51.39-38.29-61.35-75.13-39.2-144.89,19.05-354.87,93.28-594.3,73.4-236.79,247.43-333.89,254.8-337.91,8.43-4.59,19.02-1.49,23.62,6.96,4.6,8.44,1.49,19.02-6.96,23.62-2.71,1.5-169.37,95.61-238.2,317.64-72.58,234.15-129.68,439.03-92.92,574.9,7.12,26.32,20.62,43.37,41.27,52.13,64.12,27.18,172.62-32.05,173.71-32.65,8.39-4.64,19-1.61,23.66,6.81,4.65,8.41,1.62,19-6.79,23.66-4.01,2.22-80.32,43.94-151.5,43.94Z"/><path class="cls-14" d="M1024.29,3124.14c-72.94,0-142-4.99-184.21-16.75-27.75-7.72-43.53-18.07-49.65-32.54-26.43-62.47,54.87-114.7,85.75-131.83-12.77-98.7-44.62-202.13-73.04-202.13-.33,0-.66,.01-1,.04-.16,.01-15.83,3.44-21.64,78.31-3.98,51.39-1.85,115.3-.13,166.65,2.5,74.74,2.34,90.22-5.12,99.83-4.38,5.64-8.51,10.98-68.07,17.33-34,3.63-78.43,6.69-125.13,8.63-55.13,2.29-193.12,6.11-283.24-7.74-52.05-8-78.55-20.43-85.91-40.3-24.12-65.11,63.12-121.11,96.17-139.57-70.52-598.42-39.28-895.39-38.96-898.34,.74-6.67,5.23-12.31,11.56-14.52,319.7-111.73,953.73-44.14,980.55-41.22,6.86,.75,12.62,5.47,14.71,12.04,53.97,170.1,69.29,364.75,70.64,425.4,.33,14.82,4.42,25.52,12.15,31.79,12.07,9.78,32.26,8.62,39.01,7.36,5.29-1.01,10.8,.51,14.83,4.09,4.03,3.58,6.22,8.82,5.85,14.2-1.11,16.07,18.66,29.21,38.73,35.11,39.8,11.69,94.49,2.69,120.55-44.7,52.31-95.11-24.77-332.63-115.87-575.13-106.13-282.5-277.99-372.33-279.71-373.21-8.56-4.34-12.01-14.81-7.68-23.38,4.33-8.57,14.76-12.03,23.34-7.72,7.51,3.77,185.37,95.83,296.65,392.07,108.66,289.25,169.6,502.69,113.79,604.16-35.33,64.22-108.17,76.8-160.88,61.32-31.88-9.37-54.11-28.4-61.29-51.11-12.72-.11-29.89-2.59-44.87-12.75,2.5,52.68,7.22,162.59,8.9,273.64,4.79,318.4-18.9,335.58-31.63,344.81-28.94,20.98-167.94,36.17-295.15,36.17Zm-220.91-418.09c36.21,0,64.56,41.16,86.56,125.59,15.26,58.56,21.99,116.79,22.27,119.24,.84,7.37-3.08,14.46-9.77,17.67-25.67,12.36-95.5,55.95-79.94,92.73,.01,0,4.43,7.63,36.41,14.96,123.66,28.35,407.7,4.65,439.5-16.05,4.34-5.99,22.23-47.7,17.71-324.42-2.45-149.76-10.25-295.08-10.33-296.53-.36-6.63,3.04-12.6,8.34-15.83-.81-4.8-1.26-9.88-1.38-15.21-1.29-57.97-15.64-241.23-65.63-404.74-86.88-8.58-650.73-59.28-943.39,37.04-4.79,58.71-22.83,353.54,41.31,891.28,.87,7.29-2.93,14.35-9.5,17.64-27.96,14.02-104.52,62.9-89.99,102.12,6.33,9.93,66.56,28.95,247.97,27.52,115.75-.92,224.75-10.19,253.07-16.77,1.02-13.84-.06-46.19-1.04-75.24-5.21-156.04-4.58-275.81,53.58-280.82,1.42-.12,2.83-.19,4.23-.19Zm494.77,354.48h0Z"/><path class="cls-14" d="M824.22,2749.29c-6.18,0-12.17-3.3-15.32-9.11-.54-.96-28.24-49.07-114.24-85.52-8.85-3.75-12.99-13.97-9.23-22.83,3.75-8.85,13.95-13,22.83-9.23,98.75,41.85,130.02,98.66,131.3,101.06,4.54,8.48,1.34,19.03-7.14,23.56-2.61,1.4-5.42,2.07-8.2,2.07Z"/><path class="cls-14" d="M269.23,2448.97c-4.78-23.96-21.1-47.85-45.15-55.59-8.47-3.24-17.86-3.74-27.44-3.81,13.75-4.76,29.55-6.48,44.22-2.91,27.57,7.27,50.12,28.42,62.74,53.76,4.45,8.97,.79,19.85-8.18,24.31-11.49,6.05-26.11-2.88-26.19-15.76h0Z"/><path class="cls-14" d="M280.99,2168.38c-7.98,0-15.18-5.52-16.98-13.64-2.08-9.38,3.83-18.69,13.21-20.78,5.02-1.12,507.66-110.58,1022.61-19.5,9.47,1.67,15.79,10.71,14.12,20.18-1.67,9.47-10.7,15.79-20.18,14.12-507.9-89.85-1004.03,18.1-1008.98,19.19-1.27,.28-2.54,.42-3.79,.42Z"/><path class="cls-14" d="M754.43,2657.12c-93.68,0-183.15-25.51-255.72-75.1-125.1-85.5-162.27-203.3-171.42-287.08-9.85-90.18,9.49-159.62,10.32-162.54,2.63-9.25,12.23-14.62,21.51-11.98,9.24,2.63,14.6,12.25,11.99,21.49h0c-.19,.66-18.46,66.82-9.07,150.48,12.42,110.7,65.01,198.47,156.31,260.87,106.89,73.05,254.31,89.25,394.33,43.34,110-36.07,194.56-104.67,220.65-179.03,58.71-167.26,13.61-298.25,13.15-299.55-3.21-9.05,1.51-19.01,10.56-22.24,9.05-3.22,18.99,1.47,22.24,10.51,2.07,5.77,49.92,143.32-13.08,322.81-29.61,84.36-122.59,161.22-242.66,200.59-56.07,18.38-113.34,27.43-169.11,27.43Z"/><path class="cls-14" d="M1136.21,2470.85c-6.77,0-13.21-3.97-16.03-10.6-3.77-8.85,.35-19.07,9.2-22.84,152.52-64.94,219.15-9.9,221.9-7.52,7.3,6.27,8.12,17.27,1.85,24.56-6.22,7.22-17.08,8.11-24.37,2.01-1.35-1.04-56.18-42.17-185.74,13-2.23,.95-4.54,1.4-6.81,1.4Z"/><path class="cls-14" d="M398.09,2470.84c-3.86,0-7.74-1.27-10.97-3.9-53.07-43.12-104.2-47.92-104.72-47.96-9.56-.81-16.68-9.2-15.91-18.76,.78-9.56,9.08-16.69,18.66-15.96,2.5,.2,61.97,5.32,123.93,55.65,7.46,6.06,8.6,17.03,2.53,24.5-3.44,4.23-8.46,6.43-13.53,6.43Z"/><path class="cls-14" d="M323.74,2916.9c57.24-5.82,115.97,2.17,168.5,25.48-40.26-8.79-81.98-8.44-122.33-1.12-12.57,2.34-26.43,5.47-38.13,9.53-24.61,7.42-33.41-29.44-8.03-33.89h0Z"/><path class="cls-14" d="M265.08,3077.1c6.95-41.59,38.29-78.49,78.78-90.12-7.86,5.69-15.3,11.59-21.23,18.79-16.1,18.29-24.22,42.56-23.31,66.58,.08,1.88,.27,4.3,.58,5.22,3.19,9.5-1.93,19.79-11.43,22.98-12.09,4.37-25.29-6.2-23.85-18.88l.45-4.58h0Z"/><path class="cls-14" d="M342.75,3086.57c7.54-45.38,39.14-89.37,85.48-99.59-27.51,14.69-45.41,42.19-49.71,72.55-1.3,8.99-2.11,19.02-.95,27.85,2.03,9.63-4.14,19.08-13.76,21.11-12.74,2.95-24.18-9.45-21.05-21.92h0Z"/><path class="cls-14" d="M889.62,2936.26c62.07-11.4,126.95-4.39,186.06,16.59-15.17-2.17-30.26-3.96-45.4-4.23-44.07-1.16-89.03,4.91-130.08,20.82-23.92,9.16-35.43-26.76-10.58-33.18h0Z"/><path class="cls-14" d="M831.61,3077.94c23.31-33.11,53.37-66.36,93.55-77.19-32.6,20.09-50.41,56.9-62.01,91.95-8.89,26.05-45.82,8.82-31.54-14.76h0Z"/><path class="cls-14" d="M911.12,3093.53c16.46-43.05,51.54-81.62,97.07-92.78-9.39,5.68-18.35,11.61-25.62,19.37-21.34,21.52-34.24,51.05-37.42,80.84-2.29,28.35-43.54,19.55-34.02-7.43h0Z"/><path class="cls-14" d="M984.1,3092.51c21.43-27.68,48.98-53.16,83.05-63.05-6.88,4.91-12.96,10.45-18.35,16.54-15.34,18-26.67,39.82-33.61,62.2-2.46,9.52-12.17,15.25-21.69,12.79-12.4-2.92-17.49-18.78-9.4-28.48h0Z"/><path class="cls-14" d="M1243.28,1990.83c-6.29-42.84-14.93-86.2-24.96-128.53-10.13-42.76-22.28-84.99-37.27-126.37,30.65,58.92,55.16,120.96,76.41,183.89,7.07,21.14,13.74,42.14,19.91,63.97,5.76,23.99-29.83,31.44-34.1,7.05h0Z"/><path class="cls-14" d="M270.07,2026.12c7.68-46.45,18.18-91.29,32.33-135.93,14.22-43.8,31.55-87.9,59.5-124.78-22.85,39.78-34.13,84.43-42.61,129.03-8.13,44.3-12.89,90.2-14.53,134.96-1.69,24.41-37.57,21.13-34.68-3.28h0Z"/><path class="cls-14" d="M1384.62,2463.68c6.14-40.96,36.53-79.78,81.17-62.05-8.77-.18-17.47,1.12-24.75,4.37-21.7,9.83-25.13,36.78-21.6,57.67,7.54,22.94-25.42,34.92-34.36,12.46-1.62-4.02-1.05-8.39-.47-12.46h0Z"/></g><path class="cls-11" d="M816.37,2076.02v-6.48c0-1.45,.52-2.85,1.47-3.94l57.8-66.72c1.13-1.3,2.77-2.06,4.49-2.08,1.66-.12,3.38,.71,4.53,2,.33,.36,.6,.67,.92,1.03l23.71-29.27c-12.67-4.83-32.12-11.46-39.22-11.94-11.67,6.37-70.4,82.58-79.68,97.27,1.4,3.76,4.15,11.7,9.71,28.82l16.27-8.69Z"/><path class="cls-11" d="M1044.39,1630.34c-1.56-.17-3-.92-3.99-2.14-1.04-1.27-1.51-2.92-1.31-4.55l6.48-51.86-37.7,9.21-11.82,72.49,35.35,7.75,12.99-30.91Z"/><path class="cls-11" d="M946.54,1888.37c6.11-13.7,8.52-18.84,9.56-20.88-4.34-6.03-6.75-10.34-7.17-12.84-.38-2.26-.89-5.35,37.08-85.43l11.58-27.55c-20.74,.47-42.05,2.37-46.58,5.05-5.05,9.92-35.32,98.24-40.63,116.37,3.61,2.4,10.66,6.56,15.7,9.52,9.73,5.73,15.81,9.35,18.21,11.44,.94,.82,1.98,1.73,2.26,4.32Z"/><path class="cls-11" d="M477.75,1764.99l17.74,74.77c.33,1.37,.16,2.8-.46,4.06l-6.52,13.12,25.22,50.45c-.15-1.13-.05-2.28,.43-3.32,7.33-15.76,15.44-35.24,15.75-39.24-.15-9.41-25.16-121.36-30.91-138.83-6.8-2.06-22.06-7.1-30.96-10.05l-1.76,43.08,6.87,1.46c2.27,.48,4.06,2.23,4.6,4.49Z"/><path class="cls-11" d="M674.58,2108.48s0,.03,0,.05v44.22h29.07l4.77-49.1-1.55-13.41-32.72,.86,.43,17.27s-.01,.07,0,.1Z"/><path class="cls-11" d="M499.1,1576.65l-22.94-7.12-4.66,61.62-1.24,30.34c15.7-4.19,33.16-10.11,36.95-13.16,.69-5.87-3.4-40.1-8.11-71.67Z"/><polygon class="cls-11" points="459.2 1637.55 434.71 1640.27 431.36 1761.62 454.26 1758.57 459.2 1637.55"/><path class="cls-11" d="M564.16,1993.61c.52,.43,.96,.93,1.31,1.51l44.52,72.44c.46,.75,.68,1.56,.79,2.38l30.86,23.84,6.32-18.19c-27.87-42.61-71.78-108.69-79.13-117.14-3.44-.47-16.31,.14-28.97,1.19l11.91,23.81,12.4,10.15Z"/><path class="cls-11" d="M820.32,2087.55l-20.9,11.16c-.11,.06-.23,.05-.34,.1-.11,.05-.19,.15-.31,.2l-43.25,16.88c-.49,.19-1.01,.32-1.54,.38l-35.07,3.8-2.65,27.3s.06-.02,.09-.02c47.97,1.98,85.81-6.25,94.27-8.28,9.68-11.37,19.88-23.66,23.83-28.8-2.55-4.39-8.29-13.57-14.12-22.69Z"/><path class="cls-11" d="M1055.45,1635.07l-39.41,93.74-3.15,8.76c-.31,.85-.84,1.55-1.45,2.16l-13.35,31.75,7.04,14.96,28.11,8.69,5.58-.93c1.17-.21,2.35,.04,3.43,.53l48.84-147.66-3.88-12h-31.78Z"/><path class="cls-11" d="M1101.57,1558.44c-1.46,40.55-3.76,58.09-6.22,65.95,.9,.72,1.62,1.67,1.99,2.82l5.82,18.04c.39,1.22,.38,2.52-.02,3.73l-7.85,23.72c15-2.55,36.09-9.14,39-16.71,3.63-9.45,2.09-70.92,.06-113.08l-32.79,15.53Z"/><path class="cls-11" d="M421.06,1664.06l.72,8.74,1.04-37.71-7.17-67.23-33.95-16.32-.98,11.1c-2.91,36.67-2.95,79.62,1.56,86.5,11.3,4.37,33.88,9.49,34.12,9.54,2.56,.58,4.45,2.76,4.67,5.38Z"/><path class="cls-11" d="M770.61,2174.57l-.11-2.32-61.74-7.47h-40.18c-.08,0-.16,0-.23,0l-29.73-1.15c-5.69,31.18-14.68,101.17-.09,121.17,9.79,13.42,40.26,15.31,64.74,16.83,24.33,1.51,41.9,2.6,43.62,14.57,1.22,8.56,6.64,51.49-6.71,56.35-6.49,2.35-71.21,7.35-80.32-8.81-5.64-9.99-7.19-30.73-7.61-39.91-3.26-.95-7.69-1.87-11.85-1.87-3.48,0-6.78,.65-9.07,2.49-.83,.68-3.28,5.49-3.64,18.18-.61,21.08,4.6,42.69,9.48,47.2,10.15,9.08,115.76,18.92,129.66,3.58,14.29-15.77,10.27-92.53,5.91-101.84-3.17-5.34-33.33-20.53-59.25-21.37-31.84-1.03-49.32-1.59-53.69-12.51-3.01-7.52-.21-44.32,10.16-49.51,3.69-1.83,11.91-1.54,51.77,1.9,18.59,1.6,43.63,3.77,50.08,3.11,1.94-4.47,1.47-21.55-1.13-37.97-.04-.21-.06-.43-.07-.65Z"/><path class="cls-11" d="M945.47,2024.28l8.14-15.57c-12.94,18.19-24.76,34.15-31.76,43.49-.02,.03-.06,.04-.08,.07-3.03,4.55-14.7,17.74-62.58,65.01-1.13,1.12-2.65,1.74-4.22,1.74-.33,0-.68-.03-1.02-.09l-9.77-1.68c-3.06,4.18-9.05,11.5-20.82,25.37l19.68,14.64c54.39-30.2,113.26-68.11,115.78-78.22,2.13-13.66-8.97-40.24-13.43-49.32-.85-1.72-.82-3.74,.07-5.44Z"/><polygon class="cls-11" points="662.56 2152.52 662.56 2125.16 603.7 2079.68 573.8 2105.61 592.14 2126.47 635.38 2151.46 662.56 2152.52"/><path class="cls-10" d="M758.68,2158.71l11.23,1.36-.11-2.3c-3.55,.35-7.26,.67-11.12,.94Z"/><path class="cls-11" d="M427.56,1877.93c-1.7-.87-2.89-2.49-3.2-4.37l-16.29-98.05c-.42-2.54,.82-5.06,3.08-6.28l8.09-4.36,1.31-47.32c-.4,.11-.78,.3-1.2,.33-10.81,.72-41.49,6.09-40.69,20.83,1.67,30.87,24.12,171.11,34.66,181.78,7.01,4.93,29.92,2.75,45.34-.57l-17.8-35.21-13.28-6.77Z"/><polygon class="cls-11" points="539.76 1986.36 479.4 1865.62 453.14 1882.38 518.07 2010.83 539.76 1986.36"/><path class="cls-11" d="M560.61,2108.72c-.07-.09-.17-.13-.24-.22l-52.37-74.19c-1.17-1.67-1.43-3.82-.66-5.71l2.77-6.88-26.43-52.29,3.81,11.29c.64,1.9,.29,3.99-.92,5.58-.23,.31-23.19,30.76-12.56,52.69,11.81,24.37,63.39,95.28,74.22,105.63,4.69-1.67,17.9-8.3,30.57-15.12l-18.01-20.49c-.07-.09-.09-.19-.16-.28Z"/><path class="cls-11" d="M1064.66,1765.3l-11.57,34.97c-.07,.23-.22,.41-.32,.62l1.78,1.07c2.65,1.59,3.66,4.94,2.34,7.74l-41.79,87.97c.46,1.24,.8,2.51,.99,3.81,.58,3.89-2.03,11.16-6.7,20.48,6.38,3.04,15.17,5.95,19.77,4.76,10.93-9.67,64.42-116.75,66.46-132.88-3.44-5.08-17.73-17.84-30.45-27.97-.2-.16-.33-.37-.51-.54Z"/><path class="cls-11" d="M965.15,1876.28c-6.28,13.6-27.91,62.95-42.59,96.66-.22,.5-.5,.96-.84,1.38l-28.04,34.62c12.46,14.13,19.74,23.07,23.91,28.85,43.86-59.13,87.11-123.91,86.6-134.64-1.6-10.73-28.51-23.76-39.04-26.87Z"/><path class="cls-12" d="M946.54,1888.37c6.11-13.7,8.52-18.84,9.56-20.88-4.34-6.03-6.75-10.34-7.17-12.84-.38-2.26-.89-5.35,37.08-85.43l5.42-12.9c-8.99,2.2-27.9,6.29-27.9,6.29l-43.11,106.67c1.97,1.17,3.93,2.33,5.65,3.34,9.73,5.73,15.81,9.35,18.21,11.44,.94,.82,1.98,1.73,2.26,4.32Z"/><path class="cls-12" d="M828.4,2071.78v6.07c10.04,15.59,14.78,23.3,17,27.39l7.54,1.29c24.26-24,50.36-50.5,57.19-58.59-4.02-6.05-16.93-21.42-29.88-36.03l-51.85,59.86Z"/><path class="cls-12" d="M877.99,2119c1.75-1.16,67.11-46.55,68.08-47.71,.72-.86,7.44-6.99,10.93-10.16-3.06-12.3-8.72-25.53-11.61-31.41-.85-1.72-.82-3.74,.07-5.44l4.06-7.76c-.25-.44-.48-.81-.7-1.12-11.03,15.38-20.86,28.63-26.97,36.8-.02,.03-.06,.04-.08,.07-3.03,4.55-14.7,17.74-62.58,65.01-.64,.64-1.43,1.06-2.26,1.35,.18,1.1,.3,1.94,.3,1.94,0,0,19.01-.39,20.75-1.55Z"/><path class="cls-12" d="M1038.62,1806.42l-4.8,.8c-.93,.16-1.87,.09-2.76-.19l-32-9.89c-1.61-.5-2.95-1.66-3.66-3.19l-3.88-8.24c-14.14,30.07-28,60.51-30.4,67.61,1.15,2.12,4.79,7.29,8.24,11.78,7.76,2.56,26.49,10.25,37.81,21.24l36.52-76.89-5.06-3.04Z"/><path class="cls-12" d="M1044.39,1630.34c-1.56-.17-3-.92-3.99-2.14-1.04-1.27-1.51-2.92-1.31-4.55l6.48-51.86-21.66,5.29c-2.06,11.74-11.12,63.17-14.27,79.39l21.76,4.77,12.99-30.91Z"/><path class="cls-12" d="M1099.04,1632.5c2.1-8.8,4.72-19.74,4.72-19.74l32.47-15.23c-.36-18.3-1.08-37.96-1.88-54.63l-32.79,15.53c-1.46,40.55-3.76,58.09-6.22,65.95,.9,.72,1.62,1.67,1.99,2.82l1.71,5.3Z"/><path class="cls-12" d="M795.51,2070.74c1.27,3.82,2.76,8.36,4.59,13.97l16.27-8.69v-6.48c0-1.45,.52-2.85,1.47-3.94l57.8-66.72c1.13-1.3,2.77-2.06,4.49-2.08,1.66-.12,3.38,.71,4.53,2,.33,.36,.6,.67,.92,1.03l17.83-22.01-26-4.29s-63.29,74.72-81.9,97.21Z"/><path class="cls-12" d="M1005.14,1786.44l12.45,3.85c4.81-12.66,41.28-108.57,44.27-112.65,2.18-2.97,14.93-8.23,22.85-11.29l6.38-19.28-3.88-12h-31.78l-39.41,93.74-3.15,8.76c-.31,.85-.84,1.55-1.45,2.16l-13.35,31.75,7.04,14.96Z"/><path class="cls-12" d="M422.54,1862.62l-14.47-87.11c-.42-2.54,.82-5.06,3.08-6.28l8.09-4.36,1.31-47.32c-.4,.11-.78,.3-1.2,.33-10.81,.72-41.49,6.09-40.69,20.83,.85,15.68,7.06,59.59,14.35,100.4,3.2,1.96,16.77,17.07,23.17,20.38,2.2,1.14,4.41,2.21,6.37,3.14Z"/><path class="cls-12" d="M469.51,1732.24c-.85,0-1.53-.4-2.09-1.03l-1.14,27.82,6.87,1.46c2.27,.48,4.06,2.23,4.6,4.49l17.74,74.77c.33,1.37,.16,2.8-.46,4.06l-6.52,13.12,25.22,50.45c-.15-1.13-.05-2.28,.43-3.32,3.63-7.81,7.46-16.54,10.43-23.84l-34.95-140.62-20.14-7.37Z"/><polygon class="cls-12" points="477.15 1852.79 483.29 1840.42 466.92 1771.47 459.83 1769.96 427.04 1774.33 420.64 1777.78 435.72 1868.6 444.99 1873.32 477.15 1852.79"/><path class="cls-12" d="M434.57,1645.37l-1.19,43.04c6.49,7.62,19.47,21.78,22.72,25.31l2.57-62.92c-9.18-.03-22.33-.6-22.33-.6,0,0-.81-2.13-1.77-4.82Z"/><path class="cls-12" d="M380,1572.69c-.73,11.54-1.18,23.28-1.29,34.06,5.07,9.64,13.54,24.01,20.39,26.96,8.09,3.48,18.81,5.65,23.57,6.8l.15-5.42-2.01-18.88-15.3-35.74s-17.33-4.93-25.5-7.77Z"/><path class="cls-12" d="M769.91,2160.07l-.11-2.3c-3.55,.35-7.26,.67-11.12,.94l11.23,1.36Z"/><path class="cls-12" d="M790.39,2128.9c5.03-1.4,34.84-20.95,40.45-24.64-2.88-4.68-6.67-10.69-10.51-16.71l-20.9,11.16c-.11,.06-.23,.05-.34,.1-.11,.05-.19,.15-.31,.2l-43.25,16.88c-.49,.19-1.01,.32-1.54,.38l-35.07,3.8-1.02,10.52c20.63,.17,68.13-.45,72.5-1.67Z"/><path class="cls-12" d="M674.58,2108.48s0,.03,0,.05v17.36c6.68,.74,24.66,2.78,31.3,3.84l2.53-26.07-1.55-13.41-32.72,.86,.43,17.27s-.01,.07,0,.1Z"/><path class="cls-12" d="M538.56,2105.04c3.88,3.3,23.74,5.7,23.74,5.7l-1.52-1.73c-.07-.09-.09-.19-.16-.28-.07-.09-.17-.13-.24-.22l-52.37-74.19c-1.17-1.67-1.43-3.82-.66-5.71l2.77-6.88-23.21-45.91c-.23,.28-.49,.59-.76,.92l1.35,3.99c.64,1.9,.29,3.99-.92,5.58-.18,.23-13.06,17.33-15.09,35.11,17.51,23.02,63.94,80.95,67.09,83.63Z"/><path class="cls-12" d="M573.8,2105.61l14.23,16.19c9.83,.34,37.2,0,38-.31,.8-.3,27.46,15.11,36.53,20.37v-16.71l-58.87-45.48-29.89,25.94Z"/><path class="cls-12" d="M907.84,2025.42c6.07-9.56,29.33-45.96,45.41-68.39,18.62-25.98,28.12-48.87,28.71-49.45,.45-.45,13.51,2.81,19.39,4.31,1.85-4.01,2.92-7.09,2.84-8.74-1.6-10.73-28.51-23.76-39.04-26.87-6.28,13.6-27.91,62.95-42.59,96.66-.22,.5-.5,.96-.84,1.38l-28.04,34.62c5.78,6.56,10.41,11.96,14.16,16.48Z"/><path class="cls-12" d="M1064.66,1765.3l-11.57,34.97c-.07,.23-.22,.41-.32,.62l1.78,1.07c2.65,1.59,3.66,4.94,2.34,7.74l-41.79,87.97c.46,1.24,.8,2.51,.99,3.81,.3,2.01-.28,4.95-1.53,8.59l2.12-.53s8.15-4.27,8.53-5.04c.39-.78,51.79-102.8,52.37-102.8,.48,0,13.02-6.49,17.34-8.74-4.25-5.52-17.66-17.46-29.76-27.09-.2-.16-.33-.37-.51-.54Z"/><path class="cls-12" d="M659.79,2257.69c-1.75-4.37-1.52-18.6,1-30.79-1.23,2.51-1.78,4.41-1.78,4.41,0,0,.78-33.56,8.53-37.82,7.02-3.86,87.46,1.8,105.3,3.21-.28-6.48-.99-14.01-2.17-21.47-.04-.21-.06-.43-.07-.65l-.11-2.32-61.74-7.47h-40.18c-.08,0-.16,0-.23,0l-29.73-1.15c-4.97,27.24-12.46,84.1-4.54,111.37,8.21,3.44,25.73,10.04,44.72,12.57,26.18,3.49,55.47,6.21,61.29,8.53,5.82,2.33,8.73,17.84,8.73,17.84,0,0-1.15-.35-2.91-.89,.45,.96,.81,1.99,.97,3.14,1.22,8.56,6.64,51.49-6.71,56.35-6.49,2.35-71.21,7.35-80.32-8.81-5.64-9.99-7.19-30.73-7.61-39.91-3.26-.95-7.69-1.87-11.85-1.87-2.88,0-5.6,.49-7.76,1.68,1.36,1.29,2.91,2.91,2.91,2.91,0,0,2.13,50.43,13.58,53.92,11.44,3.49,87.67,10.09,104.55,5.24,16.69-4.79,20.52-12.68,20.41-11.83,5.12-28.56,1.99-75.18-1.35-82.31-3.17-5.34-33.33-20.53-59.25-21.37-31.84-1.03-49.32-1.59-53.69-12.51Z"/><path class="cls-12" d="M489.73,1588.18l-12.66-4.8s-.97,.45-2.02,.87l-3.55,46.91-1.24,30.34c8.88-2.37,18.23-5.28,25.44-7.92-1.46-8.52-5.98-65.39-5.98-65.39Z"/><path class="cls-12" d="M453.14,1882.38l27.39,54.18c8.36,3.92,23.03,10.62,23.31,11.18,.32,.63,20.67,34.88,28.13,47.42l7.8-8.8-60.37-120.74-26.25,16.76Z"/><polygon class="cls-12" points="519.72 2030.05 566.37 2096.14 597.07 2069.51 555.75 2002.27 547.62 1995.62 521.89 2024.64 519.72 2030.05"/><path class="cls-12" d="M569.4,1980.32l-13.19,3.88-4.45-.74h0l12.4,10.15c.52,.43,.96,.93,1.31,1.51l44.52,72.44c.46,.75,.68,1.56,.79,2.38l30.86,23.84,2.66-7.66c-1.02-.15-1.9-.33-2.35-.48-2.26-.76-72.54-105.32-72.54-105.32Z"/><g class="cls-8"><path class="cls-14" d="M717.89,2130.57l-1.63,16.78s.06-.02,.09-.02c47.97,1.98,85.81-6.25,94.27-8.28,9.68-11.37,19.88-23.66,23.83-28.8-.87-1.49-2.13-3.57-3.61-5.99-5.61,3.69-35.42,23.24-40.45,24.64-4.37,1.22-51.88,1.84-72.5,1.67Z"/></g><g class="cls-8"><path class="cls-14" d="M843.04,2157.25c54.39-30.2,113.26-68.11,115.78-78.22,.75-4.81-.16-11.22-1.82-17.91-3.49,3.17-10.22,9.3-10.93,10.16-.97,1.16-66.34,46.55-68.08,47.71-1.75,1.16-20.75,1.55-20.75,1.55,0,0-.12-.83-.3-1.94-.63,.22-1.28,.39-1.96,.39-.33,0-.68-.03-1.02-.09l-9.77-1.68c-3.06,4.18-9.05,11.5-20.82,25.37l19.68,14.64Z"/></g><g class="cls-8"><path class="cls-14" d="M378.71,1606.75c-.21,21.03,.84,38.25,3.56,42.39,11.3,4.37,33.88,9.49,34.12,9.54,2.56,.58,4.45,2.76,4.67,5.38l.72,8.74,.89-32.29c-4.76-1.15-15.48-3.32-23.57-6.8-6.84-2.95-15.32-17.32-20.39-26.96Z"/></g><g class="cls-8"><path class="cls-14" d="M1025.21,1904.48c-.39,.78-8.53,5.04-8.53,5.04l-2.12,.53c-1.17,3.4-2.91,7.39-5.17,11.89,6.38,3.04,15.17,5.95,19.77,4.76,10.93-9.67,64.42-116.75,66.46-132.88-.17-.25-.48-.59-.69-.88-4.32,2.25-16.86,8.74-17.34,8.74-.58,0-51.98,102.02-52.37,102.8Z"/></g><g class="cls-8"><path class="cls-14" d="M588.04,2121.81l4.1,4.67,43.24,24.99,27.18,1.06v-10.65c-9.07-5.26-35.72-20.67-36.53-20.37-.8,.3-28.17,.65-38,.31Z"/></g><g class="cls-15"><path class="cls-13" d="M483.67,1969.44l2.46,7.29c.27-.32,.53-.64,.76-.92l-3.22-6.38Z"/></g><g class="cls-15"><path class="cls-13" d="M953.61,2008.7c-1.61,2.27-3.21,4.5-4.78,6.69,.21,.31,.44,.68,.7,1.12l4.08-7.81Z"/></g><g class="cls-8"><path class="cls-14" d="M431.36,1761.62l22.91-3.05,1.83-44.85c-3.24-3.53-16.23-17.69-22.72-25.31l-2.02,73.21Z"/></g><g class="cls-8"><path class="cls-14" d="M674.59,2152.75h29.07l2.23-23.03c-6.64-1.06-24.62-3.1-31.3-3.84v26.87Z"/></g><g class="cls-8"><path class="cls-14" d="M981.96,1907.58c-.58,.58-10.09,23.47-28.71,49.45-16.07,22.43-39.33,58.83-45.41,68.39,4.34,5.22,7.51,9.27,9.74,12.37,37.09-50,73.64-103.91,83.76-125.9-5.88-1.5-18.94-4.76-19.39-4.31Z"/></g><g class="cls-8"><path class="cls-14" d="M458.64,1919.91l-17.8-35.21-13.28-6.77c-1.7-.87-2.89-2.49-3.2-4.37l-1.82-10.94c-1.97-.93-4.17-2-6.37-3.14-6.4-3.31-19.97-18.42-23.17-20.38,7.06,39.52,15.12,76.13,20.31,81.38,7.01,4.93,29.92,2.75,45.34-.57Z"/></g><g class="cls-8"><path class="cls-14" d="M480.53,1936.56l37.54,74.27,13.89-15.67c-7.46-12.54-27.81-46.79-28.13-47.42-.28-.56-14.95-7.26-23.31-11.18Z"/></g><g class="cls-8"><path class="cls-14" d="M578.79,2129.5l-16.49-18.76s-19.86-2.41-23.74-5.7c-3.14-2.67-49.58-60.6-67.09-83.63-.69,5.99-.15,12.05,2.53,17.58,11.81,24.37,63.39,95.28,74.22,105.63,4.69-1.67,17.9-8.3,30.57-15.12Z"/></g><g class="cls-8"><path class="cls-14" d="M667.54,2193.48c-7.76,4.27-8.53,37.82-8.53,37.82,0,0,.55-1.9,1.78-4.41,1.82-8.8,4.82-16.54,9.16-18.71,3.69-1.83,11.91-1.54,51.77,1.9,18.59,1.6,43.63,3.77,50.08,3.11,1.06-2.44,1.37-8.7,1.04-16.5-17.84-1.4-98.29-7.06-105.3-3.21Z"/></g><g class="cls-8"><path class="cls-14" d="M740.08,2296.09c-5.82-2.33-35.11-5.04-61.29-8.53-18.99-2.53-36.51-9.13-44.72-12.57,1.14,3.94,2.61,7.28,4.45,9.8,9.79,13.42,40.26,15.31,64.74,16.83,21.98,1.36,38.41,2.41,42.64,11.43,1.76,.53,2.91,.89,2.91,.89,0,0-2.91-15.52-8.73-17.84Z"/></g><g class="cls-8"><path class="cls-14" d="M753.66,2385.7c-16.87,4.85-93.1-1.75-104.55-5.24-11.44-3.49-13.58-53.92-13.58-53.92,0,0-1.55-1.62-2.91-2.91-.45,.25-.91,.49-1.31,.8-.83,.68-3.28,5.49-3.64,18.18-.61,21.08,4.6,42.69,9.48,47.2,10.15,9.08,115.76,18.92,129.66,3.58,3.35-3.7,5.69-10.78,7.25-19.53,.11-.85-3.73,7.04-20.41,11.83Z"/></g><g class="cls-8"><path class="cls-14" d="M1061.87,1677.64c-2.99,4.08-39.46,99.98-44.27,112.65l15.66,4.84,5.58-.93c1.17-.21,2.35,.04,3.43,.53l42.46-128.37c-7.93,3.06-20.68,8.32-22.85,11.29Z"/></g><g class="cls-8"><path class="cls-14" d="M1099.04,1632.5l4.11,12.74c.39,1.22,.38,2.52-.02,3.73l-7.85,23.72c15-2.55,36.09-9.14,39-16.71,2.2-5.72,2.5-30.47,1.95-58.46l-32.47,15.23s-2.62,10.94-4.72,19.74Z"/></g><g class="cls-7"><path class="cls-1" d="M405.5,1580.47l15.3,35.74-5.16-48.35-33.95-16.32-.98,11.1c-.26,3.31-.49,6.67-.71,10.05,8.16,2.84,25.5,7.77,25.5,7.77Z"/></g><g class="cls-7"><path class="cls-1" d="M489.73,1588.18s4.52,56.87,5.98,65.39c5.55-2.03,9.86-3.91,11.51-5.24,.69-5.87-3.4-40.1-8.11-71.67l-22.94-7.12-1.11,14.71c1.05-.42,2.02-.87,2.02-.87l12.66,4.8Z"/></g><g class="cls-7"><path class="cls-1" d="M436.34,1650.2s13.14,.57,22.33,.6l.54-13.25-24.5,2.72-.14,5.11c.96,2.69,1.77,4.82,1.77,4.82Z"/></g><g class="cls-7"><path class="cls-1" d="M468.04,1715.95l-.62,15.26c.56,.63,1.24,1.03,2.09,1.03l20.14,7.37,34.95,140.62c3.02-7.43,5.16-13.38,5.32-15.4-.15-9.41-25.16-121.36-30.91-138.83-6.8-2.06-22.06-7.1-30.96-10.05Z"/></g><g class="cls-7"><path class="cls-1" d="M539.85,1959.65l11.91,23.81,4.45,.74,13.19-3.88s70.28,104.56,72.54,105.32c.46,.15,1.34,.33,2.35,.48l3.66-10.53c-27.87-42.61-71.78-108.69-79.13-117.14-3.44-.47-16.31,.14-28.97,1.19Z"/></g><g class="cls-7"><path class="cls-1" d="M790.39,2055.89c.94,2.52,2.52,7.02,5.12,14.85,18.61-22.49,81.9-97.21,81.9-97.21l26,4.29,5.88-7.26c-12.67-4.83-32.12-11.46-39.22-11.94-11.67,6.37-70.4,82.58-79.68,97.27Z"/></g><g class="cls-7"><path class="cls-1" d="M991.43,1756.31l6.16-14.64c-20.74,.47-42.05,2.37-46.58,5.05-5.05,9.92-35.32,98.24-40.63,116.37,2.38,1.58,6.25,3.92,10.05,6.18l43.11-106.67s18.91-4.08,27.9-6.29Z"/></g><g class="cls-7"><path class="cls-1" d="M1007.87,1581l-11.82,72.49,13.59,2.98c3.16-16.22,12.21-67.66,14.27-79.39l-16.04,3.92Z"/></g><g><path class="cls-14" d="M720.93,2416.15c-34.53,0-83.09-5.64-93.76-15.52-11.45-10.59-14.78-41.85-14.18-59.07,.5-14.71,3.48-24.06,9.11-28.59,7.12-5.73,16.46-6.33,24.27-5.38-8.17-3.2-15.04-7.69-19.74-14.13-19.66-26.96-7.08-107.16-2.66-131.6l-35.8-20.69c-33.96,18.54-39.19,18.54-41.21,18.54-4.62,0-8.61,0-43.63-48.72-15.25-21.23-35.56-51.13-42.56-65.58-11.99-24.74,4.46-53.75,11.36-64.16l-15.52-45.93c-13.73,2.54-39.6,5.77-52-2.98-19.55-13.79-40.22-184.7-40.66-192.84-1.35-24.99,29.59-32.91,45.63-35.33l-2.68-32.61c-8.14-1.98-22.3-5.63-30.76-9.02-5.26-2.1-17.59-7.03-10.1-101.1,0-.02,0-.05,0-.07l1.74-19.79c.25-2.85,1.88-5.39,4.37-6.8,2.49-1.42,5.51-1.52,8.08-.28l44.81,21.53c2.72,1.31,4.57,3.93,4.89,6.92l6.64,62.29,20.79-2.31,4.69-62.04c.2-2.64,1.59-5.05,3.78-6.54,2.19-1.49,4.94-1.9,7.48-1.12l33.75,10.47c3.19,.99,5.53,3.71,6.03,7.01,11.44,75.29,8.55,81.65,7.46,84.05-1.32,2.91-4.33,9.54-43.41,20.13l-2.38,27.78c13.01,4.31,28.27,9.29,30.42,9.81,6.65,1.33,7.51,1.5,24.24,76.14,4.73,21.09,15.67,70.86,15.17,77.34-.59,7.58-10.37,29.74-15.77,41.49l9.61,37.51c31.22-2.71,35.7-.47,37.45,.41,2.53,1.26,6.76,3.37,86.02,124.63,1.48,2.26,1.83,5.08,.94,7.63l-.28,.82c1.43-1.15,3.24-1.86,5.21-1.91l44.22-1.16c4.55-.32,8.36,3.22,8.88,7.71l2.5,21.67,27.89-3.02,34.53-13.47c-4.36-13.36-8.65-26.16-9.68-28.61-.99-1.85-1.83-5,.31-9.01,3.24-6.07,23.12-32.8,41.71-56.1,40.44-50.68,46.41-50.68,51.21-50.68,8.75,0,28.42,6.71,40,10.97,10.22-24.84,20.29-51.89,22.37-61.68-3.45-2.18-9.01-5.46-13.1-7.87-19.68-11.58-22.24-13.24-23.39-17.89-.73-2.92-1.09-4.39,19.49-64.08,7.55-21.89,20.7-59.4,24.01-64.79,2.08-3.39,6.87-11.15,62.38-11.68l19.03-53.02-32.8-7.19c-4.52-.99-7.47-5.34-6.73-9.91l13.38-82.05c.56-3.45,3.13-6.23,6.53-7.06l50.04-12.22c2.78-.69,5.72,.05,7.86,1.96,2.14,1.9,3.2,4.74,2.85,7.58l-6.43,51.4c10.76,.69,21.54,1.12,27.29,1.06,2.05-10.33,4.04-38.87,4.85-63.14,.11-3.26,2.03-6.18,4.98-7.58l44.22-20.95c2.62-1.24,5.69-1.09,8.18,.39,2.5,1.49,4.08,4.12,4.24,7.02,.99,18.58,5.61,112.07-.57,128.11-6.14,15.98-33.64,22.96-47.89,25.54l-21.22,71.23c9.56,7.83,26.53,22.39,30.37,30.05,2.09,4.18,1.79,9.08-5.48,27.07-6.51,16.11-54.05,119.9-69.23,125.26-8.51,3.02-19.48-.13-26.98-3.18l-47.08,90.02c4.7,10.36,15.56,36.74,12.85,54.09-3.11,19.87-80.65,65.33-126.6,90.66-2.99,1.64-6.66,1.4-9.4-.64l-21.93-16.32-30.73,5.98,.59,12.36c7.61,48.45-3.76,52.24-8.05,53.67-5.3,1.76-18.17,1.01-56.76-2.31-15.3-1.32-35.63-3.07-43.14-2.99-2.62,6.4-5.06,24.01-4,29.85,4.72,2.72,23.74,3.33,40.59,3.88,28.12,.91,64.73,17.21,71.54,28.71,6.71,11.33,12.28,97.03-7.73,119.09-6.75,7.46-21.58,11.59-45.33,12.63-3.57,.16-7.43,.23-11.47,.23Zm-80.5-91.5c-3.04,0-5.73,.53-7.41,1.89-6.08,7.59-1.74,54.17,5.98,61.31,12.39,9.13,113.12,17.75,125.84,3.75,13.09-14.44,9.44-87.79,5.55-98.64-3.99-4.79-31.92-19.26-56.99-20.07-32.94-1.06-51.08-1.64-56.1-14.19-3.63-9.08-.63-46.88,11.46-52.91,4.35-2.17,11.82-1.94,53.21,1.62,16.05,1.39,39.46,3.46,47.77,3.2,1.19-5.86,.51-20.91-1.72-34.96-.05-.31-.08-.63-.1-.95l-.97-20.36c-.21-4.32,2.79-8.13,7.04-8.96l41.9-8.15c2.41-.47,4.9,.1,6.86,1.56l20.51,15.27c52.09-29.02,108.85-65.44,113.02-75.86,1.69-11.07-7.24-34.95-13.3-47.29-1.22-2.49-1.18-5.42,.1-7.87l52.95-101.25c1.08-2.08,2.95-3.62,5.2-4.3,2.24-.68,4.65-.43,6.7,.7,6.4,3.48,15.67,6.56,19.88,6.04,11.66-12.41,60.97-111.13,64.94-129.78-4.03-5.15-17.57-17.19-29.25-26.49-2.78-2.21-3.94-5.89-2.92-9.3l24.44-82.05c.97-3.26,3.75-5.65,7.11-6.13,16.88-2.43,37.32-9.37,39.66-15.45,2.96-7.7,2.37-58.72,.08-107.95l-27.66,13.1c-2.59,70.07-7.57,71.73-13.33,73.65-4.58,1.53-20.21,1.28-46.48-.74-2.37-.19-4.57-1.33-6.07-3.17-1.51-1.85-2.19-4.22-1.89-6.59l6-47.98-32.17,7.85-11.13,68.22,34.42,7.54c2.45,.54,4.54,2.1,5.75,4.29,1.22,2.19,1.42,4.8,.58,7.16l-24.44,68.08c-1.24,3.46-4.52,5.76-8.19,5.76-21.53,0-47.55,1.8-54.22,4.53-5.65,12.4-33.09,92.33-39.47,113.16,3.76,2.39,9.6,5.82,13.91,8.35,9.86,5.81,16.03,9.48,18.61,11.73,4.82,4.22,9.38,8.21-23.89,87.31-1.83,4.35-6.77,6.46-11.19,4.74-12.7-4.95-32.63-11.79-40.2-12.69-12.5,8.63-66.37,77.92-77.39,94.82,1.79,4.92,5.08,14.63,11.5,34.52,1.42,4.38-.83,9.11-5.12,10.79l-43.26,16.88c-.71,.28-1.46,.46-2.23,.55l-37.63,4.07c-4.74,.51-9.04-2.91-9.58-7.66l-2.58-22.34-27.57,.73,.37,14.58c.07,2.79-1.21,5.44-3.42,7.14-2.21,1.69-5.12,2.21-7.78,1.42l-23.28-6.98c-2.28-.68-4.17-2.27-5.25-4.38-1.08-2.11-1.25-4.58-.47-6.82l7.91-22.72c-26.91-41.11-68.36-103.52-77.43-114.81-5.74-.41-21.7,.55-34.87,1.84-4.32,.43-8.23-2.34-9.29-6.5l-12.22-47.71c-.5-1.95-.31-4.01,.54-5.83,6.95-14.93,14.72-33.48,15.47-38.09-.81-11.57-24.19-116.37-30.34-136.68-8.06-2.49-23.89-7.73-34.11-11.13-3.82-1.27-6.26-5-5.92-9l3.5-40.73c.32-3.69,2.92-6.77,6.51-7.69,14.58-3.75,32.03-9.43,37.62-12.69,.18-9-3.53-39.62-7.76-68.19l-18.1-5.62-4.41,58.35c-.32,4.17-3.56,7.53-7.72,7.99l-36.66,4.07c-2.32,.25-4.61-.41-6.42-1.87-1.81-1.45-2.96-3.56-3.2-5.86l-7.05-66.16-29.1-13.98-.63,7.21c-2.72,34.28-2.97,75.12,.84,84.15,11.4,4.21,32.52,9,32.74,9.05,3.71,.83,6.45,3.99,6.76,7.78l3.88,47.33c.19,2.32-.56,4.63-2.08,6.4-1.52,1.76-3.69,2.85-6.02,3-12.22,.82-38.81,6.49-38.19,18,1.59,29.33,23.26,165.49,33.75,179.84,7.37,4.41,31.18,1.68,45.31-1.65,4.34-1.03,8.8,1.44,10.24,5.69l19.39,57.42c.93,2.75,.43,5.79-1.34,8.09-6.19,8.12-20.47,32.92-12.27,49.86,11.31,23.33,59.65,90.08,72.41,103.6,6.85-2.78,22.36-10.74,35.22-17.85,2.67-1.47,5.92-1.44,8.56,.08l45.39,26.23c3.23,1.87,4.91,5.57,4.18,9.23-7.58,38.38-14.69,106.02-1.5,124.1,9.04,12.4,40.07,14.32,62.73,15.73,25.6,1.58,44.09,2.73,46.11,16.88,2.29,16.05,6.07,53.98-8.45,59.26-4.93,1.79-73.02,8.74-83.59-10.01-5.53-9.8-7.3-29.05-7.86-39.17-2.97-.74-6.25-1.25-9.21-1.25Zm31.97,31.35c7.22,5.12,47.56,5.25,60.6,3.13,1.52-6.12,1.63-23.27-.46-39.13-4.63-2.1-19.28-3.01-30.19-3.69-13.06-.81-26.9-1.67-39.44-4.1,2.35,1.56,3.84,4.19,3.9,7.09,.21,10.49,1.91,29.43,5.59,36.7Zm-15.89-260.18l3.06,.92-.22-9.07-2.84,8.15Zm134.88-44.48c.12,.21,.25,.49,.42,.88-.12-.29-.26-.59-.42-.88Zm-222.31-90h0Zm-68.11-231.96c.21,.06,.42,.11,.63,.15-.16-.03-.37-.08-.63-.15Zm-116.28-81.49h0Z"/><path class="cls-14" d="M425.15,1777.22c-2.14,0-4.21-.79-5.83-2.24-1.89-1.7-2.95-4.16-2.88-6.71l3.69-133.64c.13-4.81,4.05-8.84,8.94-8.46,4.81,.13,8.6,4.14,8.46,8.94l-3.4,123.42,17.52-2.34,5.13-125.75c.2-4.8,4.11-8.57,9.06-8.34,4.8,.2,8.54,4.25,8.34,9.06l-5.43,133.06c-.18,4.22-3.36,7.71-7.55,8.27l-34.91,4.66c-.39,.05-.77,.08-1.15,.08Z"/><path class="cls-14" d="M516.7,2030.14c-.37,0-.74-.02-1.12-.07-2.86-.37-5.35-2.13-6.65-4.71l-71.38-141.2c-2.02-3.99-.68-8.86,3.09-11.26l36.46-23.28c2.08-1.33,4.62-1.71,7-1.05,2.38,.66,4.37,2.3,5.47,4.5l65.17,130.34c1.59,3.18,1.08,7.01-1.27,9.67l-30.25,34.14c-1.66,1.88-4.04,2.93-6.51,2.93Zm-60.06-146.81l62.05,122.73,17.85-20.14-58.21-116.43-21.68,13.84Z"/><path class="cls-14" d="M709.11,2167.47h-40.54c-4.81,0-8.71-3.9-8.71-8.71v-50.24c0-4.81,3.9-8.71,8.71-8.71s8.71,3.9,8.71,8.71v41.53h23.93l4.59-47.3c.46-4.79,4.81-8.26,9.51-7.83,4.79,.46,8.29,4.72,7.83,9.51l-5.36,55.17c-.43,4.46-4.18,7.87-8.67,7.87Z"/><path class="cls-14" d="M445.32,1888.94c-1.33,0-2.68-.3-3.95-.95l-15.03-7.66c-2.46-1.25-4.18-3.6-4.63-6.33l-16.29-98.05c-.61-3.67,1.18-7.32,4.46-9.09l11.15-6.01c4.24-2.28,9.51-.69,11.8,3.54,2.28,4.23,.7,9.51-3.54,11.8l-5.67,3.06,14.55,87.58,11.12,5.66c4.28,2.19,5.99,7.43,3.8,11.71-1.54,3.02-4.59,4.75-7.76,4.75Z"/><path class="cls-14" d="M481.78,1865.67c-1.3,0-2.63-.29-3.87-.91-4.31-2.14-6.06-7.37-3.93-11.67l6.46-12.99-15.75-66.35-6.45-1.38c-4.7-1.01-7.7-5.63-6.7-10.33,1.01-4.71,5.67-7.7,10.33-6.7l11.83,2.52c3.29,.7,5.88,3.23,6.66,6.5l17.75,74.77c.47,1.98,.23,4.06-.67,5.88l-7.86,15.81c-1.52,3.06-4.6,4.83-7.8,4.83Z"/><path class="cls-14" d="M565.29,2113.74c-.35,0-.7-.02-1.05-.06-2.44-.3-4.64-1.61-6.06-3.62l-52.37-74.19c-1.7-2.41-2.07-5.53-.96-8.27l3.78-9.41c1.79-4.46,6.85-6.63,11.32-4.83,4.46,1.79,6.63,6.87,4.83,11.32l-2.02,5.01,44.09,62.46,26.72-23.18-39.88-64.91-12.25-10.02c-3.72-3.05-4.26-8.54-1.22-12.26,3.05-3.71,8.53-4.26,12.26-1.22l13.38,10.96c.75,.62,1.39,1.35,1.9,2.18l44.52,72.45c2.23,3.63,1.51,8.34-1.71,11.13l-39.57,34.33c-1.59,1.38-3.62,2.13-5.7,2.13Z"/><path class="cls-14" d="M588.28,2139.89c-2.42,0-4.82-1-6.54-2.96l-22.98-26.15c-3.17-3.61-2.82-9.11,.79-12.29,3.6-3.18,9.12-2.82,12.29,.79l22.98,26.15c3.17,3.61,2.82,9.11-.79,12.29-1.65,1.46-3.7,2.17-5.74,2.17Z"/><path class="cls-14" d="M668.57,2130.91c-1.86,0-3.74-.59-5.32-1.82l-65.1-50.3c-3.8-2.94-4.51-8.41-1.57-12.21,2.94-3.81,8.42-4.51,12.21-1.57l65.1,50.3c3.8,2.94,4.51,8.41,1.57,12.21-1.71,2.22-4.29,3.38-6.89,3.38Z"/><path class="cls-14" d="M668.58,2167.47c-.11,0-.23,0-.34,0l-34.91-1.36c-4.8-.19-8.55-4.23-8.36-9.04,.19-4.8,4.3-8.62,9.04-8.36l34.91,1.36c4.8,.19,8.55,4.23,8.36,9.04-.19,4.69-4.04,8.37-8.7,8.37Z"/><path class="cls-14" d="M776.27,2175.6c-.35,0-.7-.02-1.05-.06l-67.15-8.12c-4.78-.58-8.17-4.92-7.6-9.69,.57-4.77,4.85-8.19,9.69-7.6l67.15,8.12c4.78,.58,8.17,4.92,7.6,9.69-.53,4.42-4.29,7.66-8.63,7.66Z"/><path class="cls-14" d="M731.57,2162.36c-5.14,0-10.42-.1-15.84-.33-4.8-.21-8.54-4.26-8.34-9.06,.2-4.81,4.33-8.56,9.06-8.34,46.26,1.96,82.93-5.72,92.69-8,8.65-10.18,17.69-21.04,22.06-26.6-2.57-4.32-7.08-11.54-11.81-18.94l-18.7,9.99c-4.26,2.27-9.52,.66-11.78-3.58-2.27-4.24-.66-9.52,3.58-11.78l25.8-13.77c4-2.13,8.96-.84,11.42,2.96,20.4,31.64,20.4,32.76,20.4,35.75,0,3.85,0,4.76-29.53,39.4-1.14,1.34-2.67,2.3-4.38,2.76-1.6,.43-36.22,9.54-84.63,9.54Z"/><path class="cls-14" d="M854.97,2121.7c-.49,0-.98-.04-1.47-.13l-13.57-2.33c-4.74-.81-7.92-5.31-7.1-10.05,.82-4.74,5.24-7.94,10.05-7.1l9.16,1.57c22.73-22.5,46.55-46.7,54.69-55.88-4.61-6.38-15.51-19.34-26.45-31.76l-49.18,56.77v6.84c0,4.81-3.9,8.71-8.71,8.71s-8.71-3.9-8.71-8.71v-10.08c0-2.09,.75-4.12,2.12-5.7l57.8-66.72c1.64-1.89,4-2.98,6.5-3.01,2.51,.16,4.89,1.03,6.55,2.89,40.55,45.14,39.83,48.75,38.92,53.31-.61,3.04-1.3,6.49-64.49,68.88-1.65,1.62-3.85,2.51-6.12,2.51Z"/><path class="cls-14" d="M917.04,2057.3c-1.82,0-3.65-.57-5.21-1.73-3.85-2.89-4.64-8.34-1.76-12.19,44.17-59.01,90.24-127.27,91.41-140.05-1.72-8.34-23.7-19.85-34.88-23.75-7.36,16.18-28.13,63.57-41.58,94.43-.32,.72-.72,1.39-1.22,2l-31.25,38.59c-3.03,3.74-8.52,4.31-12.25,1.29-3.74-3.03-4.31-8.51-1.29-12.25l30.51-37.67c43.06-98.83,44.41-100.52,45.32-101.65,3.96-4.94,10.19-3.25,12.85-2.54,9.35,2.52,47.8,17.42,51.06,39.28,2.83,18.99-58.14,103.85-94.74,152.75-1.71,2.29-4.33,3.49-6.98,3.49Z"/><path class="cls-14" d="M1008.48,1906.26c-1.25,0-2.52-.27-3.73-.84-4.35-2.07-6.19-7.26-4.13-11.6l39.58-83.31-2.11-1.26-3.82,.63c-1.33,.22-2.7,.12-4-.27l-32.01-9.89c-2.34-.73-4.26-2.4-5.3-4.61l-1.44-3.05c-12.6,26.91-24.36,52.81-27.42,60.93,1.63,2.71,5.09,7.59,8.49,11.93,2.97,3.78,2.3,9.26-1.48,12.22-3.78,2.97-9.26,2.3-12.22-1.48-11.67-14.88-12.35-19.01-12.61-20.56-.53-3.18-1.03-6.19,37.38-87.21,1.44-3.04,4.5-4.98,7.87-4.98h.01c3.37,0,6.43,1.95,7.86,5l7.67,16.31,26.37,8.15,4.95-.83c2.05-.33,4.14,.06,5.91,1.12l11.64,6.98c3.85,2.3,5.31,7.15,3.39,11.2l-42.97,90.44c-1.49,3.14-4.61,4.97-7.87,4.97Zm-45.25-54.9h0Z"/><path class="cls-14" d="M1047.38,1807.09c-.9,0-1.83-.15-2.73-.44-4.57-1.51-7.04-6.44-5.53-11l49.15-148.59-3-9.3h-28.03l-57.69,137.23c-1.87,4.43-6.96,6.52-11.4,4.65-4.43-1.87-6.51-6.97-4.65-11.4l59.93-142.56c1.36-3.23,4.52-5.33,8.03-5.33h40.15c3.78,0,7.12,2.44,8.29,6.03l5.82,18.04c.57,1.76,.56,3.66-.02,5.41l-50.04,151.29c-1.21,3.66-4.61,5.97-8.27,5.98Z"/></g><path class="cls-16" d="M1480.92,820.06c-2.79-.58-4.76-3.08-4.7-5.98,.06-2.32,2.26-238.96-184.57-436.42-186.84-197.46-444.72-205.99-447.33-206.05-.93,0-1.86-.29-2.73-.75-.23-.12-24.9-13.52-101.23-47.88-66.52-29.95-98.85-80.85-108.02-97.63-37.84,21.24-36.33,92-36.33,92.75,.06,2.73-1.68,5.17-4.3,5.92-62.51,18.81-149.98,55.26-148.53,77.66,.23,4.18,1.97,7.37,5.4,9.98,16.48,12.48,63.09,5.92,79.63,2.38,3.25-.7,6.44,1.33,7.14,4.59,.7,3.19-1.33,6.44-4.53,7.14-1.39,.35-138.2,32.79-285.51,196.76-122.47,136.46-125.31,305.65-111.38,430.5,.06,.29,.23,.58,.29,.87,0,.29-.12,.52-.12,.81,3.71,32.62,8.53,62.22,12.6,87.35,23.57,144.41,.99,266.88,0,271.93-13.29,90.08,6.15,164.55,57.75,221.26,41.15,45.22,102.5,79.75,183.53,103.61,.64,.06,1.22,.23,1.8,.46,115.97,33.78,271.93,45.68,466.78,35.41,241.28-12.65,376.69-104.42,447.8-179.12,77.02-80.97,97.34-159.96,97.57-160.78,.64-2.67,3.08-4.59,5.8-4.59,76.62,0,175.75-35.75,212.96-206.28,35.46-162.75-132.57-202.28-139.77-203.9Zm-898.96,242.21c11.61-7.08,25.19-11.72,39.35-12.36,7.08-.12,14.16,.64,21.01,2.44,6.79,1.86,13.23,4.76,19.1,8.42,11.67,7.37,21.19,17.41,27.86,28.9-10.45-8.18-21.07-15.5-32.33-20.61-11.26-5.05-23.22-7.66-35.17-7.14-12.01,.29-23.97,3.77-35.52,8.65-11.49,5.05-22.64,11.49-33.49,19.1,7.37-11.14,17.59-20.31,29.2-27.4ZM246.3,744.2c-1.68,0-3.37-.7-4.53-2.09-1.92-2.21-1.97-5.51-.12-7.78,3.25-3.89,78.82-94.49,139.01-94.49h1.57c18.23,.46,32.85,6.5,43.47,17.93,18.98,20.31,17.88,50.32,17.82,51.6-.06,1.92-1.04,3.66-2.67,4.7-1.57,1.1-3.6,1.34-5.4,.64-.87-.29-88.98-31.87-185.97,28.56-.99,.64-2.09,.93-3.19,.93Zm601.84,654.54c-36.86,49.8-94.96,82.19-165.19,93.8-15.79,4.93-34.48,8.13-56.88,8.13-19.62,0-37.84-2.38-54.33-6.79-107.38-15.5-154.91-80.04-174.13-119.22-30.59-62.45-28.56-137.21,5.11-186.03,45.1-65.41,112.72-75.45,200.88-29.83,26.82,13.81,58.97-2.21,59.32-2.38,.23-.12,.52-.23,.75-.29,1.68-.58,164.78-54.79,211.27,71.86,20.95,57.17,11.2,119.39-26.82,170.76Zm200.25-656.63c-1.16,1.39-2.84,2.09-4.53,2.09-1.1,0-2.21-.29-3.19-.93-96.99-60.42-185.1-28.85-185.97-28.56-1.8,.7-3.83,.46-5.4-.64-1.63-1.04-2.61-2.79-2.67-4.7-.06-1.28-1.16-31.28,17.76-51.6,10.68-11.43,25.31-17.47,43.53-17.93h1.57c60.13,0,135.76,90.6,139.01,94.49,1.86,2.26,1.8,5.57-.12,7.78Z"/><path class="cls-2" d="M824.48,155.49c-11.32,1.19-222.35,37.29-324.76,158.41,0,0-6.68-67.41,22.7-90.11,0,0-68.66,12.51-81.17-12.22-12.51-24.73,48.41-56.73,52.57-59.06,4.16-2.33,92.03-28.22,95.23-36.37,3.2-8.15,3.49-25.6,3.49-28.8s8.44-45.1,24.44-57.32c16-12.22,20.37-8.15,20.37-8.15,0,0,11.35,21.53,54.99,60.23,43.64,38.7,133.54,73.32,133.54,73.32"/><path class="cls-16" d="M134.85,943.98c-3.9-23.88-8.43-51.77-12.07-82.47-22.76,4.56-100.3,28.28-99.35,139.64,.96,110.88,86.8,182.28,113.01,201.5,4.86-31.05,18.28-136.89-1.59-258.67Z"/><path class="cls-2" d="M908.23,651.87c-14.86,.4-26.62,5.11-34.96,14.03-10.18,10.88-13.31,25.83-14.26,34.92,10.49-2.86,29.98-6.97,55.32-6.97,27.91,0,62.92,4.99,100.8,22.13-26.59-26.63-70.29-64.12-105.59-64.12-.44,0-.87,0-1.31,.02Z"/><path class="cls-1" d="M585.99,1317.01c-.71-1.2-1.31-2.78-1.86-4.54-13.06,7.16-38.54,25.47-34.73,57.94,2.57,21.91,25.1,44.56,53.57,53.87,29.21,9.56,57.06,3.11,76.39-17.69,17.2-18.52,23.37-37.68,17.83-55.42-4.9-15.71-18.08-28.04-31.2-34.59-1.01,5.4-1.88,9.05-2.33,9.72-1.39,2.09-2.37,3.56-16.76,3.56-2.26,0-4.84-.04-7.82-.11-30.67-.78-48.54-5.07-53.09-12.75Z"/><path class="cls-1" d="M667.96,1167.36c-4.44,2.18-38.97,18.08-69.86,2.11-16.75-8.66-52.28-27.03-91.17-27.03-32.02,0-66.32,12.45-94.31,53.04-31.27,45.34-32.95,115.22-4.2,173.89,14.6,29.77,46.54,75.03,111.63,99.25-7.54-6.02-14.24-12.79-19.91-20.38-21.51-28.76-26.98-66.2-15.41-105.42,10.16-34.47,36.03-79.27,101.51-96.96,.83-.22,1.45-.39,1.87-.52,1.63-.96,3.52-1.83,5.71-2.61,17.38-6.2,64.39-9.19,73.45,1.26,1.34,1.54,2.27,4.11,2.91,7.38,16.99,3.57,79.83,21.33,95.59,90.66,9.3,40.93,1.36,81.04-21.78,110.02-4.59,5.75-10.36,11.78-17.48,17.56,46.63-15.46,85.25-41.94,111.95-78.01,35.57-48.05,44.76-106.16,25.2-159.45-41.81-113.87-185.46-68.2-195.71-64.78Z"/><path class="cls-5" d="M656.47,1300.47c2.44-18.8,4.54-43.93,1.6-48.77-3.04-2.22-23.16-3.98-44.1-1.18-11.69,1.56-17.46,3.78-19.85,5.18-.2,.14-.41,.28-.62,.4-.15,.11-.33,.22-.43,.31-.62,13.14-.6,31.03,.68,42.95,.45,.51,.86,1.08,1.12,1.75,.63,1.59,.51,3.27-.16,4.7,.45,2.22,.98,3.99,1.62,5.05,4.7,5.49,44.42,7.82,57.46,6.86,.29-1.44,.61-3.28,.95-5.32-.21-.05-.43-.14-.64-.19-3.25-.71-5.3-3.92-4.58-7.16,.69-3.17,3.78-5.17,6.95-4.58Z"/><path class="cls-2" d="M416.88,665.9c-8.33-8.91-20.09-13.63-34.96-14.03-.43-.01-.87-.02-1.31-.02-35.34,0-79.03,37.5-105.61,64.13,72.3-32.72,134.09-21.18,156.14-15.17-.95-9.08-4.09-24.04-14.26-34.91Z"/><path class="cls-9" d="M734.6,1444.54c20.85-26.12,27.94-62.51,19.45-99.85-13.49-59.38-64.1-76.49-82.78-80.85,.17,12.38-1.43,27.9-3.25,40.39,16.95,7.39,34.25,22.87,40.66,43.37,4.81,15.4,5.16,39.57-20.5,67.19-15.84,17.05-36.46,25.91-59.01,25.91-9.69,0-19.75-1.64-29.93-4.97-33.24-10.87-58.64-37.15-61.78-63.9-4.93-42.06,30.6-64.57,44.35-71.63-1.55-13.71-1.25-31-.93-40.13-53.84,17.68-75.77,56.17-84.62,86.15-10.47,35.49-5.67,69.17,13.51,94.82,14.6,19.53,36.65,33.44,64.15,41.01,8.69,1.24,17.74,2.19,27.27,2.72,27.61,1.54,53.99,.12,78.83-3.91,22.61-7.23,41.09-19.42,54.57-36.31Z"/><path class="cls-12" d="M381.93,651.87c-.43-.01-.87-.02-1.31-.02-35.34,0-79.03,37.5-105.61,64.13,72.3-32.72,134.09-21.18,156.14-15.17-.95-9.08-4.09-24.04-14.26-34.91-8.33-8.91-20.09-13.63-34.96-14.03Z"/><path class="cls-12" d="M1015.13,715.97c-26.59-26.63-70.29-64.12-105.59-64.12-.44,0-.87,0-1.31,.02-14.86,.4-26.62,5.11-34.96,14.03-10.18,10.88-13.31,25.83-14.26,34.92,10.49-2.86,29.98-6.97,55.32-6.97,27.91,0,62.92,4.99,100.8,22.13Z"/><path class="cls-12" d="M573.92,1482.04c8.69,1.24,17.74,2.19,27.27,2.72,27.61,1.54,53.99,.12,78.83-3.91,22.61-7.23,41.09-19.42,54.57-36.31,20.85-26.12,27.94-62.51,19.45-99.85-13.49-59.38-64.1-76.49-82.78-80.85,.17,12.38-1.43,27.9-3.25,40.39,16.95,7.39,34.25,22.87,40.66,43.37,4.81,15.4,5.16,39.57-20.5,67.19-15.84,17.05-36.46,25.91-59.01,25.91-9.69,0-19.75-1.64-29.93-4.97-33.24-10.87-58.64-37.15-61.78-63.9-4.93-42.06,30.6-64.57,44.35-71.63-1.55-13.71-1.25-31-.93-40.13-53.84,17.68-75.77,56.17-84.62,86.15-10.47,35.49-5.67,69.17,13.51,94.82,14.6,19.53,36.65,33.44,64.15,41.01Z"/><path class="cls-12" d="M613.97,1250.53c-11.69,1.56-17.46,3.78-19.85,5.18-.2,.14-.41,.28-.62,.4-.15,.11-.33,.22-.43,.31-.62,13.14-.6,31.03,.68,42.95,.45,.51,.86,1.08,1.12,1.75,.63,1.59,.51,3.27-.16,4.7,.45,2.22,.98,3.99,1.62,5.05,4.7,5.49,44.42,7.82,57.46,6.86,.29-1.44,.61-3.28,.95-5.32-.21-.05-.43-.14-.64-.19-3.25-.71-5.3-3.92-4.58-7.16,.69-3.17,3.78-5.17,6.95-4.58,2.44-18.8,4.54-43.93,1.6-48.77-3.04-2.22-23.16-3.98-44.1-1.18Z"/><path class="cls-12" d="M602.97,1424.29c29.21,9.56,57.06,3.11,76.39-17.69,11.51-12.39,17.96-25.06,19.39-37.4-5.5-3.16-19.83-10.72-33.3-10.72-16.7,0-57.49,.58-68.54,.58s-40.15,22.69-40.15,22.69c0,0-3.62-2.59-6.8-8.12,4.26,20.87,25.93,41.8,53.01,50.66Z"/><path class="cls-12" d="M28.67,970.06c7.51,22.54,33.65,96.01,64.91,127.34,26.47,26.53,42.23,35.04,50,37.78,3.13-49.03,3.36-117.15-8.73-191.2-2.93-17.96-6.22-38.19-9.22-60.17-6.77,2.8-18.83,8.33-36.51,18.47-23.21,13.31-50.39,52.46-60.45,67.79Z"/><path class="cls-12" d="M245.34,422.55c-35.36,39.37-60.71,81.49-78.61,124.48,19.48-42.02,45.71-82.74,78.61-124.48Z"/><g class="cls-8"><path class="cls-14" d="M136.44,1202.65c1.91-12.17,5.12-35.86,7.13-67.47-7.77-2.74-23.53-11.25-50-37.78-31.26-31.33-57.4-104.81-64.91-127.34-2.43,3.71-3.87,6.01-3.99,6.21-.85,7.78-1.32,16.02-1.24,24.87,.96,110.88,86.8,182.28,113.01,201.5Z"/></g><g class="cls-8"><path class="cls-14" d="M1544.81,1113.5c-67.5,75.65-155.94,76.23-166.42,77.39-10.47,1.16-48.88,108.23-137.33,180.97-176.31,134.42-406.55,102.61-406.55,102.61,87.18-76.85,61.56-171.99,50.52-201.74,3.99,43.65-8.63,87.84-36.9,126.02-36.87,49.8-94.97,82.18-165.18,93.79-15.77,4.97-34.5,8.11-56.89,8.11-19.62,0-37.82-2.34-54.32-6.77-107.41-15.47-154.9-80.02-174.12-119.22-16.47-33.6-23.4-70.74-21.12-105.51,0-.65,0-1.05,0-1.05-42.16,143.55,56.13,211.02,56.13,211.02-156.72-38.02-247.5-171.46-244.39-253.7s-18.62-152.67-18.62-152.67c0,0-6.78-8.91-12.46-16.01,2.11,89.41-9.75,153.62-10.44,157.27-13.29,90.08,6.13,164.51,57.74,221.23,41.16,45.24,102.51,79.79,183.53,103.61,.63,.08,1.22,.24,1.8,.51,115.94,33.74,271.91,45.65,466.8,35.4,241.29-12.7,376.69-104.44,447.78-179.17,77.01-80.94,97.36-159.97,97.55-160.76,.67-2.68,3.08-4.56,5.84-4.56,76.6,0,175.71-35.79,212.92-206.3,12.61-57.78-.5-99.97-22.9-130.5,14.44,45.2,14.45,144.49-52.96,220.04Z"/></g><g class="cls-8"><path class="cls-14" d="M427.19,1334.81c-19.4-42.28-18.23-121.81-18.23-121.81-3.73,2.41-7.07,5.35-10.1,8.67-17.1,43.55-14.1,99.4,9.57,147.69,12.68,25.86,38.47,63.37,87.66,88.66,9.64,3.05,15.03,2.69,15.03,2.69,0,0-.07-.12-.09-.15-3.94-3.86-7.6-7.95-10.89-12.34-12.04-16.1-19.04-34.91-20.86-55.23-.02,0-32.7-15.92-52.09-58.19Z"/></g><g class="cls-8"><path class="cls-14" d="M768.6,1391.32c-2.66,22.69-10.97,43.64-24.6,60.72-4.59,5.75-10.36,11.78-17.48,17.56,46.63-15.46,85.25-41.94,111.95-78.01,35.57-48.05,44.76-106.16,25.2-159.45-2.12-5.78-4.57-11.05-7.19-16.04,15.26,128.05-66.57,167.25-87.87,175.21Z"/></g><g class="cls-8"><path class="cls-14" d="M556.76,1381.75s29.09-22.69,40.15-22.69,51.84-.58,68.54-.58c13.47,0,27.79,7.56,33.3,10.72,.71-6.11,.28-12.14-1.55-18.01-4.9-15.71-18.08-28.04-31.2-34.59-1.01,5.4-1.88,9.05-2.33,9.72-1.39,2.09-2.37,3.56-16.76,3.56-2.26,0-4.84-.04-7.82-.11-30.67-.78-48.54-5.07-53.09-12.75-.71-1.2-1.31-2.78-1.86-4.54-13.06,7.16-38.54,25.47-34.73,57.94,.12,1.07,.34,2.14,.55,3.21,3.18,5.53,6.8,8.12,6.8,8.12Z"/></g><g class="cls-7"><path class="cls-1" d="M89.12,902.28c17.68-10.14,29.74-15.67,36.51-18.47-.99-7.25-1.95-14.69-2.85-22.3-19.92,3.99-81.77,22.65-96.28,101.85,0,0,.76,2.45,2.18,6.7,10.06-15.32,37.24-54.48,60.45-67.79Z"/></g><g class="cls-15"><path class="cls-13" d="M26.49,963.36c-.76,4.12-1.33,8.46-1.82,12.91,.13-.2,1.56-2.51,3.99-6.21-1.42-4.25-2.18-6.7-2.18-6.7Z"/></g><g class="cls-7"><path class="cls-1" d="M26.49,963.36c-.76,4.12-1.33,8.46-1.82,12.91,.13-.2,1.56-2.51,3.99-6.21-1.42-4.25-2.18-6.7-2.18-6.7Z"/></g><g class="cls-7"><path class="cls-1" d="M130.19,811.73c3.96,32.57,10.37,67.07,19.4,104.08,0,0-4.81-200.91,34.76-318.45,39.57-117.54,179.11-242.55,309.51-302.24,0,0,7.36-26.8,7.63-28.3,.22-1.25,2.62-24.82,3.42-32.69-46.65,17.41-150.19,66.64-259.57,188.41-32.89,41.73-59.13,82.46-78.61,124.48-37.5,90.09-42.11,184-36.54,264.71Z"/></g><g class="cls-7"><path class="cls-1" d="M692.92,212.16s216.46-49.05,456.2,101.75c231.1,145.36,289.19,304.79,293.08,316.1-25.77-77.15-71.03-168.28-150.55-252.34-186.84-197.47-444.74-205.99-447.32-206.05-.96-.02-1.9-.28-2.74-.74-.09-.05-3.43-1.86-11.19-5.75-31.94,.17-55.3,3.75-68.03,6.68-42.64,9.83-69.44,40.34-69.44,40.34Z"/></g><g class="cls-7"><path class="cls-1" d="M454.74,208.67s168.75-53.15,171.08-69.44c2.33-16.29-6.21-44.22,5.04-48.1,11.25-3.88,32.2,24.44,69.05,37.63,36.85,13.19,97.71,20.53,97.71,20.53-14.59-6.88-33.4-15.57-57.24-26.3-66.52-29.93-98.84-80.88-108.04-97.62-37.83,21.22-36.35,92-36.33,92.74,.07,2.72-1.69,5.15-4.29,5.93-62.53,18.76-149.97,55.26-148.57,77.66,.18,2.91,1.12,5.31,2.81,7.39,2.32,.43,5.19,.37,8.77-.42Z"/></g><path class="cls-14" d="M728.35,1601.71c-268.31,0-450.06-50.53-541.22-150.71-56.59-62.19-77.98-143.12-63.58-240.55,.04-.26,.09-.53,.14-.8,.23-1.2,23.12-121.52-.1-263.85-20.4-125.04-58.37-357.77,104.32-538.92,81.82-91.1,159.88-142.78,215.56-171.33-3.28-1.46-6.32-3.2-9.03-5.25-8.9-6.74-13.97-16.13-14.66-27.16-1.54-24.61,25.03-47.12,86.14-72.98,26.24-11.1,52.3-20,67-24.77,1.62-26.77,10.37-85.61,55.48-104.1,8.6-3.54,18.48,.34,22.39,8.78,.26,.55,28.92,59.91,99.2,91.54,61.67,27.75,89.77,41.87,99.12,46.73,35.97,1.7,276.95,20.2,459.56,213.21,169.85,179.52,188.81,385.1,190.78,439.52,43.91,14.25,178.27,71.3,144.1,227.87-40.13,183.91-151.66,220.67-222.81,224.39-9.08,26.8-35.74,91.27-98.89,157.84-74.03,78.04-214.63,173.83-464.04,186.96-45.16,2.38-88.33,3.56-129.45,3.56ZM157.95,1215.93c-12.69,86.42,5.79,157.63,54.94,211.64,97.76,107.43,314.13,153.11,643.09,135.8,187.42-9.87,339.29-70.26,439.2-174.67,75.42-78.81,95.48-155.87,95.67-156.64,1.95-7.73,8.92-13.19,16.89-13.19,72.41,0,166.19-34.24,201.78-197.33,33.04-151.41-124.38-188.81-131.1-190.33-8.06-1.82-13.76-9.07-13.6-17.33,.04-2.3,1.93-234.57-181.45-428.38-183.36-193.79-436.79-202.42-439.33-202.49-2.77-.07-5.51-.8-7.94-2.14-.22-.12-24.81-13.47-100.41-47.49-58.01-26.1-91.35-67.72-106.51-91.17-18.6,19.53-22.19,59.37-21.78,75.6,.2,7.85-4.88,14.89-12.4,17.15-69.92,20.99-135.06,51.93-140.41,66.59,.07,.33,.27,.55,.86,1,9.48,7.19,44.04,5.98,70.37,.34,9.4-2,18.61,3.94,20.66,13.29,2.06,9.36-3.83,18.62-13.18,20.72-1.3,.3-135.04,32.45-279.48,193.26-139.83,155.69-122.8,344.9-95.85,510.03,23.8,145.89,1.8,266.25-.02,275.72Z"/><path class="cls-14" d="M140.76,1230.42c-3.16,0-6.37-.86-9.24-2.67C126.2,1224.4,1.24,1144.22,0,1001.35c-1.29-149.1,125.13-164,126.41-164.13,9.61-.99,18.13,5.95,19.13,15.52,1,9.57-5.95,18.13-15.51,19.12-3.85,.44-96.21,12.32-95.2,129.19,1.06,123.53,114.1,196.51,115.24,197.23,8.12,5.14,10.55,15.88,5.42,24.01-3.32,5.25-8.96,8.13-14.74,8.13Z"/><path class="cls-14" d="M552.76,1089.64c24.65-61.64,114.8-66.3,136.55,0-13.15-5.82-24.51-11.22-35.51-14.68-35.4-11.86-66.97,1.79-101.04,14.68h0Z"/><path class="cls-14" d="M623.28,1505.9c-7.65,0-15.4-.21-23.23-.65-132.26-7.35-188.38-82.63-210.05-126.85-31.92-65.12-29.62-143.32,5.73-194.58,47.93-69.51,119.2-80.47,211.8-32.58,22.83,11.8,51.26-2.23,51.55-2.38,.59-.3,1.25-.58,1.88-.79,59.51-20.38,182.51-30.51,221.98,77,21.98,59.89,11.79,125.03-27.96,178.73-48.52,65.53-132.1,102.09-231.68,102.09Zm-116.93-355.11c-30.53,0-61.18,12.46-86.73,49.51-29.12,42.22-30.58,110.21-3.56,165.33,18.89,38.52,68.11,104.12,185.61,110.65,99.81,5.54,183.65-27.16,229.98-89.73,33.83-45.71,42.6-100.91,24.04-151.46-38.44-104.71-171.72-64-184.56-59.81-7.01,3.32-43.64,18.97-76.93,1.75-25.39-13.13-56.56-26.23-87.85-26.23Z"/><path class="cls-14" d="M647.41,1335.49c-2.56,0-5.48-.05-8.8-.14-49.02-1.31-54.91-11.24-57.43-15.48-7.37-12.42-6.44-49.44-5.69-64.88,.21-5.44,3.25-12.84,16.45-17.55,17.07-6.1,67.84-10.68,79.57,2.87,12.45,14.36-.01,84.33-3.18,89.1-3.01,4.5-6.25,6.07-20.92,6.07Zm-46.64-28.44c7.51,3.79,34.56,5.48,48.32,5.23,2.55-15.1,6.07-45.92,4.42-56.18-11.12-3.06-44.89-.86-54.98,3.58-.78,20.41,.21,41.09,2.25,47.37Zm.42,1.06h0Zm-2.5-52.28h0Zm-11.6-.34h0Zm65.92-1.42h0Z"/><path class="cls-14" d="M629.26,1446.31c-10.3,0-20.96-1.74-31.76-5.27-35.24-11.53-62.22-39.72-65.6-68.57-5.25-44.78,32.48-71.89,53.15-79.97l8.48,21.61c-1.76,.7-43.04,17.59-38.58,55.66,2.32,19.84,23.25,40.54,49.76,49.2,12.79,4.18,45.3,10.98,70.55-16.19,15.99-17.2,21.57-34.01,16.59-49.94-5.58-17.87-24.19-31.91-38.96-35.16l4.99-22.68c21.47,4.73,47.64,23.73,56.13,50.91,5.25,16.82,5.75,43.08-21.74,72.67-16.95,18.24-38.97,27.72-63.01,27.72Z"/><path class="cls-14" d="M626.06,1506.25c-57.74,0-104.05-19.41-130.41-54.67-22.59-30.21-28.38-69.4-16.3-110.35,10.57-35.83,37.44-82.4,105.42-100.78,.59-.16,1.08-.29,1.46-.4,4.76-2.02,10.45-.66,13.74,3.63,3.9,5.09,2.94,12.37-2.14,16.28-2.04,1.57-3.9,2.07-6.99,2.91-57.62,15.58-80.32,54.79-89.21,84.94-9.96,33.76-5.47,65.68,12.63,89.89,21.86,29.24,61.57,45.35,111.81,45.35,46.22,0,82.24-14.52,104.16-41.99,20.07-25.14,26.59-58.92,18.36-95.12-15.48-68.12-84.24-77.79-84.94-77.87-6.36-.83-10.84-6.65-10.02-13,.83-6.36,6.72-10.8,13-10.02,.85,.11,85.57,12.01,104.59,95.75,9.69,42.6,1.36,84.42-22.85,114.75-18.47,23.14-54.68,50.72-122.31,50.72Zm-42.36-264.72h0Zm0,0h0Z"/><path class="cls-14" d="M246.3,749.79c-3.26,0-6.47-1.37-8.75-3.97-3.75-4.28-3.83-10.65-.21-15.04,3.32-4.01,81.93-98.17,145.04-96.53,19.8,.53,35.76,7.15,47.44,19.68,20.54,22.05,19.37,54.3,19.31,55.66-.16,3.71-2.09,7.12-5.19,9.17-3.09,2.04-6.97,2.49-10.44,1.2h0c-.86-.31-86.63-30.78-181.08,28.06-1.9,1.18-4.02,1.76-6.13,1.76Zm134.33-92.35c-24.51,0-55.2,20.64-80.85,42.96,54.58-17.68,100.69-12.26,124.54-7.01-1.66-7.62-4.97-16.69-11.57-23.73-7.37-7.85-17.5-11.85-30.97-12.2-.38,0-.76-.01-1.15-.01Z"/><path class="cls-14" d="M1043.86,749.79c-2.11,0-4.23-.57-6.13-1.76-94.44-58.85-180.21-28.37-181.08-28.06-3.48,1.28-7.36,.83-10.45-1.23-3.09-2.05-5.02-5.45-5.18-9.15-.06-1.36-1.23-33.61,19.31-55.66,11.68-12.54,27.64-19.16,47.44-19.69,.56-.01,1.12-.02,1.68-.02,62.81,0,140.07,92.58,143.36,96.56,3.63,4.39,3.54,10.76-.21,15.04-2.28,2.6-5.49,3.97-8.75,3.97Zm-129.51-61.5c21.8,0,47.78,2.96,76.03,12.11-26.04-22.67-57.53-43.57-81.99-42.94-13.47,.36-23.6,4.35-30.98,12.21-6.6,7.03-9.91,16.11-11.57,23.73,11.5-2.53,28.19-5.1,48.51-5.1Z"/><ellipse class="cls-13" cx="358.99" cy="937.34" rx="71.57" ry="100.67"/><ellipse class="cls-1" cx="379.35" cy="908.69" rx="20.37" ry="28.64"/><ellipse class="cls-13" cx="906.46" cy="937.34" rx="71.57" ry="100.67"/><ellipse class="cls-1" cx="886.09" cy="908.69" rx="20.37" ry="28.64"/><path class="cls-14" d="M496.25,335.08c-1.27,0-2.56-.14-3.83-.43-6.11-1.38-11.01-5.94-12.83-11.93-.77-2.55-18.27-62.96,38.02-115.53,7.03-6.56,18.05-6.19,24.61,.84,6.56,7.03,6.19,18.05-.84,24.61-15.59,14.56-23.41,29.69-27.13,42.83,136.04-120.92,321.39-127.06,329.8-127.27,9.54-.09,17.6,7.35,17.85,16.97,.24,9.61-7.35,17.6-16.96,17.85-2.7,.08-209.31,7.39-335.8,146.38-3.33,3.67-8.03,5.69-12.88,5.69Z"/><path class="cls-14" d="M1234.59,748.75c-22.73,2.27-1047.49,19.42-1136.37,20.9-22.51,94.14-17.37,223.31,36.24,292.08,26.95,34.57,64.07,52.09,110.32,52.09,169.92,0,252.73-69.98,273.57-135.47l1.4-4.39c21.76-68.47,46.41-146.12,110.62-137.85,39.13,5.02,53.15,37.36,72.55,82.12,12.94,29.87,29.05,67.04,57.27,106.55,70.3,98.42,218.19,87.79,294.49,65.99,187.75-70.06,137.57-265.34,137.04-267.31-.46-1.71-.14-3.54,.87-5,1.02-1.46,2.62-2.39,4.39-2.55,1.41-.13,34.54-3.13,45.55-3.13,6.51,0,35.1,3.98,74.77,9.6,19.43,2.75,37.79,5.35,43.76,5.95,8.31,.95,52.51-14.64,88.95-28.68-84.27-22.87-200.41-52.51-215.41-50.9Z"/><path class="cls-1" d="M1196.99,815.92l.55-69.4,36.47-3.75s214.36,50.23,216.01,50.68c1.65,.45-5.7,7.86-8.76,9.56-3.07,1.7-83.9,30.96-83.9,30.96l-120.31-17.43-40.05-.62Z"/><path class="cls-1" d="M559.69,858.24v-102.46h110.97s-5.3,102.98,0,108.28-47.38-53.53-110.97-5.82Z"/><path class="cls-14" d="M559.69,904.59c-9.62,0-17.41-7.8-17.41-17.41v-131.4c0-9.5,7.61-17.24,17.11-17.41l110.97-1.94c9.33-.31,17.09,7.03,17.68,16.32l7.93,126.64c.6,9.6-6.69,17.87-16.29,18.47-9.58,.62-17.87-6.69-18.47-16.29l-6.89-110.02-77.22,1.35v114.29c0,9.62-7.79,17.41-17.41,17.41Z"/><path class="cls-14" d="M1197.53,839.32c-9.62,0-17.41-7.8-17.41-17.41v-77.77c0-9.62,7.79-17.41,17.41-17.41s17.41,7.8,17.41,17.41v77.77c0,9.62-7.79,17.41-17.41,17.41Z"/><g class="cls-4"><path class="cls-1" d="M134.47,1061.73l111.83-294.57h95.63l-135.28,342.15c-34.89-10.96-58.45-27.04-72.18-47.58Z"/></g><g class="cls-4"><polygon class="cls-1" points="244.79 1119.83 387.99 767.16 421.05 767.16 275 1119.06 244.79 1119.83"/></g><g class="cls-4"><path class="cls-1" d="M830.22,1072.15l82.7-312.13,95.2-9.04-101.42,363.05c-35.79-7.92-60.82-22.16-76.48-41.89Z"/></g><g class="cls-4"><polygon class="cls-1" points="944.12 1110.5 1053.23 745.84 1086.14 742.7 974.13 1106.86 944.12 1110.5"/></g><path class="cls-14" d="M244.79,1137.25c-53.84,0-97.17-20.56-128.79-61.11-61.84-79.32-63.76-219.75-39.38-316.66,1.92-7.63,8.72-13.03,16.6-13.16,384.15-6.4,1116.61-19,1139.14-20.87,.65-.07,1.4-.1,2.23-.1,30.97,0,190.02,43.02,239.11,56.5,7.21,1.98,12.35,8.34,12.77,15.81,.42,7.47-3.97,14.37-10.92,17.15-44.28,17.71-100.47,38.51-116.82,36.85-6.45-.65-24.19-3.16-44.73-6.07-26.04-3.69-65.39-9.26-71.51-9.37-4.58,0-14.66,.68-24.29,1.43,8.19,55.82,14.35,211.77-155.78,275.23-.42,.16-.86,.3-1.3,.43-82.2,23.49-242.1,34.15-319.99-74.9-29.66-41.53-46.32-79.96-59.7-110.85-19.5-44.99-29.16-65.01-54.03-68.2-41.59-5.33-61.6,47.08-85.31,121.71l-1.4,4.4c-23.34,73.38-113.34,151.78-295.9,151.78ZM107.36,780.9c-19.6,90.55-13.71,209.93,36.1,273.82,24.67,31.65,58.76,47.7,101.32,47.7,163.96,0,244-68.69,262.71-127.52l1.39-4.38c21.97-69.12,49.29-155.18,122.93-145.71,45.57,5.84,61.45,42.49,81.56,88.9,12.73,29.38,28.57,65.94,56.09,104.46,66.42,92.99,207.8,82.7,281.42,61.84,74.55-28,119.03-78.89,132.23-151.25,10.04-55.05-2.28-101.86-2.4-102.33-1.34-4.96-.41-10.26,2.52-14.48,2.94-4.22,7.59-6.92,12.71-7.39,3.57-.32,35.25-3.17,46.58-3.17,6.73,0,28.02,2.86,76.35,9.71,18.8,2.66,36.59,5.18,42.82,5.85,6.37-.37,26.84-6.88,50.94-15.52-84.28-22.38-164.31-41.9-177.16-41.31-22.33,2.24-964.29,18.05-1128.12,20.78Z"/></g></g></svg>